<?xml version="1.0" standalone="no"?>
<!DOCTYPE svg PUBLIC "-//W3C//DTD SVG 1.1//EN" "http://www.w3.org/Graphics/SVG/1.1/DTD/svg11.dtd" >
<!--
2013-9-30: Created.
-->
<svg>
<metadata>
Created by iconfont
</metadata>
<defs>

<font id="iconfont-tcl" horiz-adv-x="1024" >
  <font-face
    font-family="iconfont-tcl"
    font-weight="500"
    font-stretch="normal"
    units-per-em="1024"
    ascent="896"
    descent="-128"
  />
    <missing-glyph />
    
    <glyph glyph-name="x" unicode="x" horiz-adv-x="1001"
d="M281 543q-27 -1 -53 -1h-83q-18 0 -36.5 -6t-32.5 -18.5t-23 -32t-9 -45.5v-76h912v41q0 16 -0.5 30t-0.5 18q0 13 -5 29t-17 29.5t-31.5 22.5t-49.5 9h-133v-97h-438v97zM955 310v-52q0 -23 0.5 -52t0.5 -58t-10.5 -47.5t-26 -30t-33 -16t-31.5 -4.5q-14 -1 -29.5 -0.5
t-29.5 0.5h-32l-45 128h-439l-44 -128h-29h-34q-20 0 -45 1q-25 0 -41 9.5t-25.5 23t-13.5 29.5t-4 30v167h911zM163 247q-12 0 -21 -8.5t-9 -21.5t9 -21.5t21 -8.5q13 0 22 8.5t9 21.5t-9 21.5t-22 8.5zM316 123q-8 -26 -14 -48q-5 -19 -10.5 -37t-7.5 -25t-3 -15t1 -14.5
t9.5 -10.5t21.5 -4h37h67h81h80h64h36q23 0 34 12t2 38q-5 13 -9.5 30.5t-9.5 34.5q-5 19 -11 39h-368zM336 498v228q0 11 2.5 23t10 21.5t20.5 15.5t34 6h188q31 0 51.5 -14.5t20.5 -52.5v-227h-327z" />
    

    
    <glyph glyph-name="shezhi" unicode="&#58945;" d="M960.225968 422.95522c0 7.68196-2.931892 15.362896-8.798747 21.228487-5.864808 5.864568-13.525592 8.797363-21.185353 8.797363l-45.828599 0c-18.997435 0-39.088828 14.81645-44.735663 32.93818l-23.768284 57.732889c-8.930759 16.698311-5.252846 41.340547 8.097754 54.757115l32.522003 32.477692c5.427838 5.427616 8.798747 12.933567 8.798747 21.228487 0 8.293897-3.326905 15.800871-8.798747 21.249977l-55.197351 55.107085c-5.427838 5.427616-12.912607 8.775874-21.185353 8.775874s-15.801518-3.370771-21.229357-8.775874l-32.522003-32.521694c-13.3506-13.394055-38.081854-17.070794-54.803362-8.097422l-57.691251 23.74582c-18.034464 5.602601-32.917016 25.737174-32.917016 44.711318L580.983386 802.202731c0 7.659447-2.932916 15.341407-8.798747 21.206998-5.864808 5.865591-13.525592 8.798387-21.185353 8.798387l-77.95866 0c-7.703765 0-15.363525-2.932796-21.229357-8.798387-5.864808-5.864568-8.797724-13.546527-8.797724-21.206998l0-45.893236c0-18.974144-14.751563-39.108716-32.873012-44.711318l-57.735255-23.74582c-16.764489-8.973372-41.364755-5.339612-54.715354 8.097422l-32.654015 32.499182c-5.427838 5.427616-12.956611 8.754385-21.229357 8.754385-8.272746 0-15.757514-3.369747-21.185353-8.775874l-55.065339-55.063083c-5.427838-5.427616-8.754743-12.912078-8.798747-21.206998 0-8.272407 3.370909-15.779382 8.798747-21.206998l32.479023-32.543184c13.437584-13.438057 17.115497-38.058804 8.097754-54.757115l-23.768284-57.776891c-5.602831-18.120706-25.694225-32.937157-44.690636-32.937157l-45.873626 0.042979c-7.703765 0-15.364549-2.932796-21.229357-8.797363-5.864808-5.865591-8.798747-13.546527-8.798747-21.228487l0-77.932953c0-7.68196 2.932916-15.363919 8.798747-21.228487 5.864808-5.844102 13.525592-8.775874 21.229357-8.775874l45.873626 0c18.996411-0.044002 39.044824-14.859429 44.647655-32.93818l23.812288-57.732889c8.929736-16.742313 5.29685-41.451064-8.097754-54.801117l-32.566007-32.476669c-5.427838-5.427616-8.798747-12.93459-8.798747-21.251 0-8.272407 3.369885-15.800871 8.798747-21.228487l55.196328-55.107085c5.427838-5.428639 12.912607-8.775874 21.186376-8.775874 8.272746 0 15.801518 3.347235 21.229357 8.775874l32.566007 32.499182c13.3506 13.371542 37.949842 17.048281 54.627346 7.988951l57.866243-23.74582c18.121449-5.624091 32.873012-25.714661 32.873012-44.711318l0-45.718251c0-7.68196 2.932916-15.362896 8.797724-21.228487 5.865831-5.843078 13.525592-8.775874 21.229357-8.775874l77.914656 0c7.703765 0 15.364549 2.932796 21.229357 8.775874 5.864808 5.865591 8.798747 13.546527 8.798747 21.228487l0 45.718251c0 18.996656 14.882552 39.087227 32.917016 44.711318l57.779259 23.74582c16.720485 9.060353 41.407735 5.383614 54.846343-7.988951l32.347011-32.476669c5.427838-5.450129 12.912607-8.842389 21.229357-8.842389 8.272746-0.021489 15.801518 3.326768 21.229357 8.775874l55.197351 55.151088c5.471842 5.449106 8.798747 12.95608 8.798747 21.251s-3.370909 15.800871-8.798747 21.228487l-32.522003 32.476669c-13.3506 13.350053-17.028513 38.057781-8.097754 54.801117l23.768284 57.732889c5.646835 18.077727 25.825213 32.894178 44.735663 32.894178l45.828599 0c7.659761 0 15.320545 2.931772 21.185353 8.798387 5.865831 5.864568 8.798747 13.546527 8.798747 21.228487L960.226991 422.95522 960.225968 422.95522zM684.505282 384.042979c0-95.222735-77.169659-172.34523-172.373782-172.34523-95.248127 0-172.418809 77.122495-172.418809 172.34523 0 95.200222 77.170682 172.367743 172.418809 172.367743C607.335623 556.410722 684.505282 479.243201 684.505282 384.042979"  horiz-adv-x="1024" />

    
    <glyph glyph-name="rili" unicode="&#58965;" d="M482.745518 446.228273M290.013056 656.206612c24.657598 0.080841 43.793204 19.748786 44.153422 45.635363 0.19853 14.256702 0.036841 28.511357 0.036841 42.761919l0.074704 0c0 0.229221 0.001023 0.458441 0.001023 0.686638 0.004093 14.337543 0.114615 28.674063-0.037864 43.005466-0.125872 11.841699-3.551022 22.610974-11.824799 31.378661-13.027235 13.803377-30.921518 17.848507-48.442279 11.183713-17.106304-6.511297-28.04693-21.814842-28.258763-40.931225-0.167829-14.876826-0.21388-29.756721-0.211833-44.63764 0.001023-14.247492 0.045027-28.494984 0.069588-42.741453C245.62324 676.544823 265.28587 656.114514 290.013056 656.206612zM737.216634 655.376711c24.657598 0.080841 43.793204 19.748786 44.153422 45.635363 0.19853 14.256702 0.036841 28.511357 0.036841 42.761919l0.074704 0c0 0.229221 0.001023 0.458441 0.001023 0.686638 0.004093 14.337543 0.114615 28.674063-0.037864 43.005466-0.125872 11.841699-3.551022 22.610974-11.824799 31.378661-13.027235 13.803377-30.921518 17.848507-48.442279 11.183713-17.106304-6.511297-28.04693-21.814842-28.258763-40.931225-0.167829-14.876826-0.21388-29.756721-0.211833-44.63764 0.001023-14.247492 0.045027-28.494984 0.069588-42.741453C692.826818 675.714921 712.489449 655.284613 737.216634 655.376711zM544.14135 327.172737l117.422152 0 0-87.472214-117.422152 0 0 87.472214ZM722.854952 446.396095l117.235902 0 0-87.589894-117.235902 0 0 87.589894ZM722.916353 327.495078l117.112077 0 0-87.794555-117.112077 0 0 87.794555ZM365.472775 207.874677l117.229762 0 0-87.615477-117.229762 0 0 87.615477ZM544.235498 208.054779l117.248182 0 0-87.453794-117.248182 0 0 87.453794ZM722.972637 207.949378l117.322887 0 0-87.385233-117.322887 0 0 87.385233ZM186.424538 207.799976l117.430338 0 0-87.453794-117.430338 0 0 87.453794ZM186.691632 327.054033l117.224645 0 0-87.60729-117.224645 0 0 87.60729ZM543.979661 446.171991l117.430338 0 0-87.446631-117.430338 0 0 87.446631ZM365.211821 326.985472l117.408848 0 0-87.453794-117.408848 0 0 87.453794ZM365.492219 446.228273l117.253299 0 0-87.552032-117.253299 0 0 87.552032ZM942.383812 745.290533 832.132268 745.290533c-0.033771-5.252631-0.077775-10.505261-0.150432-15.757892-0.746022-53.558823-38.755256-94.76941-88.796006-98.193393-2.278999-0.268106-4.597908-0.424672-6.958774-0.432859-2.907335-0.011256-5.758386 0.201591-8.548035 0.599657-48.993864 4.502547-86.681766 46.683229-86.782055 99.55132-0.008187 4.744048-0.019444 9.489118-0.028654 14.233166L383.419249 745.290533c-0.033771-5.252631-0.077775-10.505261-0.150432-15.757892-0.777745-55.834656-42.049417-98.255815-95.233895-98.4308-53.334911-0.198521-95.744546 43.868113-95.850975 99.955526-0.008187 4.744048-0.019444 9.489118-0.028654 14.233166L81.615165 745.290533c-9.612319 0-17.405122-7.792477-17.405122-17.404392l0-738.420823c0-9.611915 7.792804-17.404392 17.405122-17.404392l860.768647 0c9.612319 0 17.405122 7.792477 17.405122 17.404392L959.788934 727.886141C959.788934 737.49908 951.997154 745.290533 942.383812 745.290533zM907.425182 30.031223l-787.047598 0 0 24.290219 0 27.895327L120.377584 512.084167l786.296459 0 0-429.867398 0.750115 0L907.424158 30.031223z"  horiz-adv-x="1024" />

    
    <glyph glyph-name="flowerpot" unicode="&#58949;" d="M464.715 507.658c27.392 27.392 9.16 148.882-77.018 235.06s-206.1 105.979-235.06 77.019c-28.96-28.96-9.16-148.882 77.018-235.06s207.668-104.411 235.06-77.019zM794.777 584.678c86.178 86.178 105.979 206.1 77.018 235.06-28.96 28.96-148.882 9.16-235.06-77.018s-104.411-207.668-77.018-235.06 148.882-9.16 235.06 77.018zM455.827 429.928l0 0-316.108 0c-25.055 0-45.553-20.499-45.553-45.553l0-88.915c0-0.002 0-0.003 0-0.005l0-45.548 45.55 0c0.001 0 0.002 0 0.002 0l439.341 0-314.374-38.439c-19.4-3.947-32.198-22.536-28.964-42.067l33.552-202.566c2.941-17.758 18.299-30.781 36.3-30.781l393.861 0c18.387 0 33.95 13.573 36.452 31.788l38.733 282.065 86.47 0c25.055 0 45.553 20.499 45.553 45.553l0 134.469-450.817 0z"  horiz-adv-x="1024" />

    
    <glyph glyph-name="jiantou" unicode="&#58927;" d="M300.295344 832.184579 756.236584 385.474584 300.295344-61.234387 264.856203-26.540214 685.507706 385.474584 264.856203 797.490406Z"  horiz-adv-x="1024" />

    
    <glyph glyph-name="jiantou1" unicode="&#58928;" d="M273.239938 384.137889l431.296983 431.296983 34.418521-34.418521-431.296983-431.296983-34.418521 34.418521ZM704.538638-46.267079l-431.29843 431.29843 34.418521 34.418521 431.29843-431.29843-34.418521-34.418521Z"  horiz-adv-x="1024" />

    
    <glyph glyph-name="menu" unicode="&#58931;" d="M51.2 664.5248l76.8 0 0 76.8L51.2 741.3248 51.2 664.5248zM51.2-1.0496l76.8 0 0 76.8L51.2 75.7504 51.2-1.0496zM51.2 331.7504l76.8 0 0 76.8L51.2 408.5504 51.2 331.7504zM204.8256 741.3248l0-76.8L972.8 664.5248l0 76.8L204.8256 741.3248zM204.8256 331.7504 972.8 331.7504l0 76.8L204.8256 408.5504 204.8256 331.7504zM204.8256-1.0496 972.8-1.0496l0 76.8L204.8256 75.7504 204.8256-1.0496z"  horiz-adv-x="1024" />

    
    <glyph glyph-name="xiao47" unicode="&#58950;" d="M317.4144 33.4848 158.3616 189.9264 58.3168-76.8768ZM827.9552 533.7856 663.7568 703.0528 187.8272 233.5232 358.4768 56.5504ZM963.2 663.1168c22.2976 25.0624 0 73.1648 0 73.1648s-43.4688 48.1024-93.4656 84.6592c-50.048 36.5312-88.5504 0-88.5504 0l-84.6336-84.6592 171.904-171.264C868.4544 565.0176 940.928 638.1056 963.2 663.1168z"  horiz-adv-x="1024" />

    
    <glyph glyph-name="youhuiquan" unicode="&#58946;" d="M357.040742 411.465538l-28.021194 0c-7.715729 0-13.807471 5.685489-13.807471 12.588713l0 77.564563c0 7.309476 6.091742 12.994965 13.807471 12.994965l28.021194 0c7.715729 0 13.807471-5.685489 13.807471-12.994965l0-77.564563C370.848213 417.151028 364.756471 411.465538 357.040742 411.465538zM357.040742 256.335389l-28.021194 0c-7.715729 0-13.807471 5.685489-13.807471 12.994965l0 77.564563c0 6.903224 6.091742 12.588713 13.807471 12.588713l28.021194 0c7.715729 0 13.807471-5.685489 13.807471-12.588713l0-77.564563C370.848213 262.020878 364.756471 256.335389 357.040742 256.335389zM901.619742 267.300115c-49.544393 19.899212-84.062558 65.382103-84.062558 118.17447s34.518165 98.276281 84.062558 118.17447l0 88.529289c0 14.213723-12.588713 25.989931-28.021194 25.989931L370.848213 618.168274l0-38.98592c0-6.903224-6.091742-12.994965-13.807471-12.994965l-28.021194 0c-7.715729 0-13.807471 6.091742-13.807471 12.994965l0 38.98592L147.493216 618.168274c-15.431457 0-27.614941-11.777231-27.614941-25.989931l0-88.529289c49.13814-19.899212 83.656305-65.382103 83.656305-118.17447s-34.518165-98.276281-83.656305-118.17447l0-88.529289c0-14.213723 12.183484-25.989931 27.614941-25.989931l167.718863 0 0 38.98592c0 6.903224 6.091742 12.994965 13.807471 12.994965l28.021194 0c7.715729 0 13.807471-6.091742 13.807471-12.994965l0-38.98592 502.751359 0c15.431457 0 28.021194 11.777231 28.021194 25.989931L901.620765 267.300115zM901.619742 101.205239 357.040742 101.205239l-28.021194 0L119.878275 101.205239c-30.863938 0-56.041364 23.147186-56.041364 51.574632l0 51.980885 0 51.574632 0 51.574632c46.295396 0 83.656305 34.924417 83.656305 77.564563s-37.360909 77.564563-83.656305 77.564563l0 51.574632 0 51.574632 0 51.980885c0 28.427446 25.178449 51.574632 56.041364 51.574632l209.141274 0 28.021194 0 544.578999 0c30.457686 0 55.636135-23.147186 55.636135-51.574632l0-77.564563 0-25.989931 0-51.574632c-46.295396 0-83.656305-34.924417-83.656305-77.564563s37.360909-77.564563 83.656305-77.564563l0-51.574632 0-77.564563 0-25.989931C957.255877 124.353448 932.077428 101.205239 901.619742 101.205239z"  horiz-adv-x="1024" />

    
    <glyph glyph-name="xiangji" unicode="&#58986;" d="M521.364362 424.606188c-95.80273 0-173.723256-77.915661-173.723256-173.718391 0-95.803946 77.920526-173.723256 173.723256-173.723256 95.803946 0 173.724472 77.91931 173.724472 173.723256C695.088834 346.690527 617.145198 424.606188 521.364362 424.606188L521.364362 424.606188zM890.558513 574.292708 728.094647 574.292708l-64.046068 82.253026c-3.558926 4.557517-8.965428 7.198128-14.742905 7.198128L384.087863 663.743862c-5.929516 0-11.535493-2.812111-15.046982-7.620188l-60.254827-81.830966-175.343382 0c-37.862543 0-68.626695-30.764152-68.626695-68.602368l0-503.358111c0-37.838216 30.764152-68.602368 68.626695-68.602368l757.115842 0c37.862543 0 68.625478 30.764152 68.625478 68.602368l0 503.358111C959.183992 543.505446 928.421056 574.292708 890.558513 574.292708L890.558513 574.292708zM521.364362 39.823796c-116.404604 0-211.085895 94.682507-211.085895 211.087111s94.681291 211.087111 211.085895 211.087111c116.40582 0 211.087111-94.682507 211.087111-211.087111S637.770182 39.823796 521.364362 39.823796L521.364362 39.823796zM810.77095 415.640761c-15.094419 0-27.3524 12.253116-27.3524 27.3524 0 15.094419 12.257981 27.348751 27.3524 27.348751 15.094419 0 27.3524-12.254333 27.3524-27.348751C838.123349 427.893877 825.865368 415.640761 810.77095 415.640761L810.77095 415.640761zM810.77095 415.640761"  horiz-adv-x="1024" />

    
    <glyph glyph-name="xinfeng" unicode="&#58947;" d="M527.246927 691.752573c113.891476 0 227.88528-0.716299 341.776756 0.306985 60.373738 0.511642 88.923354-25.479764 88.309383-87.490756-1.432597-139.473569 0.409313-278.947137-0.818627-418.420706-0.716299-78.178875-31.926451-107.240132-111.333267-107.34246-218.573399-0.306985-437.044469-0.306985-655.617867 0.204657C111.896073 79.21495 64.722694 125.774358 64.313381 202.622964c-0.716299 125.55691-0.511642 251.11382-0.204657 376.568402C64.313381 660.644749 94.397921 691.036275 178.511842 691.854902c116.245028 1.125612 232.490057 0.306985 348.735085 0.306985C527.246927 692.059558 527.246927 691.854902 527.246927 691.752573zM518.037374 133.142001c109.286699 0 218.675727 1.330269 327.962426-0.61397 41.44299-0.716299 58.224843 12.381733 57.303887 55.666633-2.251224 104.579594-0.306985 209.363845-1.330269 314.045768-0.102328 17.088838 9.41421 40.624363-12.484061 49.833916-19.954032 8.390926-32.64275-10.130509-47.07105-21.693614-96.904967-77.360248-195.651844-152.5716-291.021885-231.773758-31.517138-26.196063-51.573499-25.275107-82.27201 0.102328-97.109623 80.532427-197.084441 157.483362-295.012691 237.094834-13.098031 10.64215-25.377436 23.740182-41.647647 19.135405-21.079644-6.037374-13.20036-27.219346-13.302688-42.05696-0.716299-99.974818 1.330269-200.051964-0.716299-300.026781-1.125612-56.48526 23.535525-80.327771 78.690517-79.816129C303.966424 133.858299 411.001899 133.244329 518.037374 133.142001zM139.524733 633.323074c19.851704-18.316778 25.991406-24.763466 32.949735-30.289198 60.88538-48.298991 121.259119-97.211952 182.860797-144.38533C515.172179 336.161487 515.581493 336.161487 672.041571 460.797442c66.411112 52.903767 131.491956 107.34246 211.205756 172.62796C627.835715 633.323074 392.68512 633.323074 139.524733 633.323074z"  horiz-adv-x="1024" />

    
    <glyph glyph-name="gengduo" unicode="&#58948;" d="M512 255.632377c-70.78209 0-128.368646 57.585533-128.368646 128.368646s57.585533 128.367623 128.368646 128.367623c70.783113 0 128.368646-57.585533 128.368646-128.367623S582.783113 255.632377 512 255.632377zM512 456.359005c-39.898709 0-72.359005-32.460296-72.359005-72.359005 0-39.898709 32.460296-72.357981 72.359005-72.357981s72.359005 32.460296 72.359005 72.357981C584.359005 423.899732 551.898709 456.359005 512 456.359005zM846.541309 255.632377c-70.783113 0-128.368646 57.585533-128.368646 128.368646s57.585533 128.367623 128.368646 128.367623 128.368646-57.585533 128.368646-128.367623S917.324422 255.632377 846.541309 255.632377zM846.541309 456.359005c-39.898709 0-72.359005-32.460296-72.359005-72.359005 0-39.898709 32.460296-72.357981 72.359005-72.357981s72.359005 32.460296 72.359005 72.357981C918.900314 423.899732 886.440018 456.359005 846.541309 456.359005zM177.458691 255.632377c-70.78209 0-128.368646 57.585533-128.368646 128.368646s57.585533 128.367623 128.368646 128.367623 128.367623-57.585533 128.367623-128.367623S248.240781 255.632377 177.458691 255.632377zM177.458691 456.359005c-39.898709 0-72.359005-32.460296-72.359005-72.359005 0-39.898709 32.460296-72.357981 72.359005-72.357981s72.359005 32.460296 72.359005 72.357981C249.817696 423.899732 217.3574 456.359005 177.458691 456.359005z"  horiz-adv-x="1024" />

    
    <glyph glyph-name="fujian" unicode="&#58885;" d="M512 891C372.5 891 259 782.9 259 650l0-265 0-51 455 0 0-214c0-106.3-90.4-192.8-202-192.8-111.6 0-202 75.7-202 168.7L310 233l151 0 0 51L309.6 284 259 284l0-43.6 0-144.6c0-119.6 113.5-216.9 253-216.9 139.5 0 253 108.1 253 241L765 336.8 765 385l-50.6 0L310 385 310 650c0 106.3 90.4 192.8 202 192.8 111.6 0 202-75.7 202-168.7L714 537 563 537l0-51 151.4 0L765 486l0 43.6L765 674.1C765 793.7 651.5 891 512 891z"  horiz-adv-x="1024" />

    
    <glyph glyph-name="jinduchaxun" unicode="&#58886;" d="M855.5 56.1c-14 0-25.5-11.3-25.5-25.3L830-70 172-70 172 840l658 0 0-353.8c0-14 11.5-25.3 25.5-25.3 14 0 25.5 11.3 25.5 25.3L881 865.7c0 14-11.8 25.3-25.8 25.3L146.8 891c-14 0-24.8-11.3-24.8-25.3l0-961.4c0-14 10.9-25.3 24.8-25.3l708.4 0c14 0 25.8 11.3 25.8 25.3L881 30.8C881 44.8 869.5 56.1 855.5 56.1zM813.3 229.2c26.1 30.9 41.9 70.7 41.9 114.2 0 97.7-79.4 177.1-177.1 177.1C580.5 520.5 501 441 501 343.4s79.4-177.1 177.1-177.1c35.9 0 69.3 10.8 97.3 29.3l118.7-118.7 35.8 35.8L813.3 229.2zM678.1 216.9c-69.7 0-126.5 56.8-126.5 126.5s56.8 126.5 126.5 126.5 126.5-56.8 126.5-126.5S747.9 216.9 678.1 216.9z"  horiz-adv-x="1024" />

    
    <glyph glyph-name="yuyuefuwu" unicode="&#58890;" d="M1001 646.4c-2.8 8.2-9.7 14.5-18 16.7-8.3 2.2-17 0-22.8-5.8L797.9 494.9 620.3 672.5 783.4 835.6c6.2 6.2 8.3 15.5 5.4 24.3-2.9 8.7-10.3 15.4-19.2 17.4C676.4 897.7 538.4 892.5 456.1 810.2c-76.5-76.5-90.3-188.6-77.4-272.7L12.8 171.5c-9.3-9.3-8.9-24.7 1-34.6l248.6-248.6c9.8-9.8 25.3-10.2 34.6-1l365.6 365.6c100.1-27.6 191.4-1 271.6 79.2C1016 414.1 1041.1 531.6 1001 646.4zM898.6 367.7c-71.7-71.7-149.5-92.7-237.7-64-8.7 2.8-17.9 0.7-24.1-5.5L278.2-60.3 65.1 152.8l357.5 357.5c5.4 5.4 7.7 13.3 6.2 21.1-14.1 73.2-5 175.5 62.7 243.2 56.5 56.5 146.6 69.2 222.1 62.3L568 691.2c-9.3-9.3-8.9-24.8 1-34.6l213.1-213.1c9.8-9.8 25.3-10.2 34.6-1l149.3 149.3C981.9 508.6 958 427.1 898.6 367.7zM521.2 502.4 627.8 395.8 645.5 413.6 539 520.1Z"  horiz-adv-x="1024" />

    
    <glyph glyph-name="changjianwenti" unicode="&#58891;" d="M378.9 466.7c0 73.4 59.1 133.2 131.7 133.2 72.3 0 131.2-58.6 131.2-130.6 0-74-68.6-136.1-144.1-130.3-7 0.5-13-4.5-13-11.5L484.7 211 535 211l0 88.2c75.5 10.4 149.8 84 149.8 170.1 0 94.5-79.4 171.4-174.2 171.4-95.1 0-172.4-78-172.4-173.9L378.9 466.8zM514.6 181.1c-13.9 0-25.2-11.2-25.2-25.1 0-13.9 11.3-25.2 25.2-25.2 13.9 0 25.1 11.3 25.1 25.2C539.7 169.8 528.5 181.1 514.6 181.1zM653 865.3C270.6 968.6-70.9 627.1 32.3 244.7c45-166.6 177.2-298.9 343.9-343.8 382.4-103.2 723.9 238.3 620.7 620.7C951.9 688.1 819.7 820.4 653 865.3zM639.6-50.8C295.1-144.2-12.7 163.6 80.7 508.1 121.2 657.8 239.9 776.4 389.6 817c344.5 93.4 652.3-214.4 558.9-558.9C907.9 108.4 789.3-10.3 639.6-50.8z"  horiz-adv-x="1024" />

    
    <glyph glyph-name="jindushijian" unicode="&#58894;" d="M511.7 890.2C233.2 890.2 6.6 663.6 6.6 385.1c0-278.5 226.6-505.1 505.1-505.1 278.5 0 505.1 226.6 505.1 505.1C1016.9 663.6 790.3 890.2 511.7 890.2zM511.7-69.5c-250.7 0-454.6 203.9-454.6 454.6 0 250.7 203.9 454.6 454.6 454.6 250.7 0 454.6-203.9 454.6-454.6C966.4 134.4 762.4-69.5 511.7-69.5zM537 437.4 537 744l-51 0 0-308.6c-20-10.3-35.7-31.8-35.7-56.9 0-35 28.5-63.6 63.5-63.6 19.7 0 37.2 10.1 48.8 23.1L816 338l0 51L576.2 389C572.5 411 558 429.3 537 437.4z"  horiz-adv-x="1024" />

    
    <glyph glyph-name="quxiao" unicode="&#58895;" d="M1014 835.3 966.4 882.9 514 430.6 61.7 882.9 14.1 835.3 466.4 383 14.1-69.4 61.7-117 514 335.4 966.4-117 1014-69.4 561.7 383Z"  horiz-adv-x="1024" />

    
    <glyph glyph-name="xiangguanxiazai" unicode="&#58897;" d="M768.1 622.4c-52.9 98.8-155.5 162.1-264.6 162.1-129.8 0-245.2-83.6-285.2-204.9C96.9 545.4 6.9 423.3 6.9 289.6c0-162.9 131.8-300.5 287.8-300.5 12.7 0 23 10.3 23 23s-10.3 23-23 23C163.7 35.1 53 151.7 53 289.6 53 407.1 134 513.9 241.5 538l13.4 3 3.7 13.2c30.3 108.4 131 184.2 244.8 184.2 95.5 0 185.2-57.6 228.7-146.8l5.3-10.8 11.9-1.9C876.8 559 973 444.3 973 312.2c0-150.2-121.5-277.1-265.4-277.1-12.7 0-23-10.3-23-23s10.3-23 23-23c168.8 0 311.4 148 311.4 323.2C1019 462.7 911.9 593.9 768.1 622.4zM325.9 212.2l172-198.6c4.8-5.6 11.8-8.7 19.1-8.7 7.3 0 14.3 3.2 19.1 8.7l172 198.6-38.3 33.2L540 95.3 540 431l-51 0 0-330.2L364 245.4 325.9 212.2z"  horiz-adv-x="1024" />

    
    <glyph glyph-name="zaixiankefu" unicode="&#58898;" d="M998.8 246.1c-12.3 2-19.1 26-15.2 53.3 0 0 1.1 7.3 1.1 36.6 0 254.5-210 461.5-468.2 461.5-258.1 0-468.2-207-468.2-461.5 0-28.8 0.9-35.2 0.9-35.2 3.9-27.3-5-51.7-19.7-54.1S7 220.2 12.2 193.1l32.8-173.2c5.1-27.1 31.6-45.6 58.8-41.2l60 9.9c27.2 4.5 45.3 30.3 40.2 57.4l-32.8 173.2c-5.1 27.1-21 47.4-35.3 45-14.3-2.4-29.5 18-33.7 45.3 0 0-0.1 0.6-0.1 26.5 0 226.8 185.9 411.3 414.3 411.3 228.5 0 414.3-184.5 414.3-411.3 0-26.4-0.2-27.9-0.2-27.9-4.3-27.3-21.4-47.3-38.1-44.6s-34.6-17.2-39.7-44.3L820 46c-5.1-27.1 13-53 40.2-57.4l60-9.9c27.2-4.5 53.7 14.1 58.8 41.2l32.8 173.2C1016.9 220.2 1011.1 244 998.8 246.1zM371.6 127.2 298.4 201.5 239.4 133.3 220.4 149.7 297.3 238.5 364.2 170.4 437.5 325.5 525.8 184 612.8 323.4 696.5 183.8 741.2 229.5 818.1 150.2 800.1 132.8 741.1 193.6 691.7 143.1 612.3 275.3 525.8 136.6 440.5 273.2Z"  horiz-adv-x="1024" />

    
    <glyph glyph-name="bingxiang" unicode="&#58899;" d="M800.2 892 239.6 892C211.5 892 189 870.1 189 843.4l0-922.2c0-26.8 22.5-48.2 50.6-48.2l560.6 0c28.1 0 50.8 21.4 50.8 48.2L851 843.4C851 870.1 828.3 892 800.2 892zM800-76 239-76 239 382l561 0L800-76zM239 434 239 841l561.2 0 0-407L239 434zM291 561l50 0 0-103-50 0 0 103ZM291 331l50 0 0-152-50 0 0 152Z"  horiz-adv-x="1024" />

    
    <glyph glyph-name="fuwumendian" unicode="&#58901;" d="M678.9 547.1c0 72.4-59.5 131.3-132.7 131.3-73.1 0-132.7-58.9-132.7-131.3 0-72.4 59.5-131.3 132.7-131.3C619.4 415.8 678.9 474.7 678.9 547.1zM464 547.1c0 44.9 36.9 81.4 82.2 81.4 45.3 0 82.2-36.5 82.2-81.4 0-44.9-36.9-81.4-82.2-81.4C500.9 465.8 464 502.3 464 547.1zM651.5 45l37.3 42.8c101.7 135.8 171.9 371.2 171.9 481.4 0 176.4-145.9 320-325.2 320s-325.2-143.5-325.2-320c0-109.9 69.8-344.4 171-480.3l37.1-42.7c-80.6-5.7-250.7-24.5-250.7-81.2 0-67.1 234.7-84.8 358.9-84.8 124.1 0 358.9 17.7 358.9 84.8C885.4 19.1 730.1 38.6 651.5 45zM260.7 569.2c0 149.1 123.3 270.3 274.8 270.3 151.5 0 274.8-121.3 274.8-270.3 0-172-153.9-533.9-274.8-533.9C407.4 35.3 260.7 414.3 260.7 569.2zM526.5-95c-215.9 0-333.6 39.6-333.6 60 0 15.4 76 48.8 250.6 57.8 29.3-23.4 60.1-37.2 92-37.2 31.5 0 62 13.5 90.9 36.3 165.1-10.5 233.8-42.1 233.8-56.9C860.2-55.3 742.4-95 526.5-95z"  horiz-adv-x="1024" />

    
    <glyph glyph-name="jingxiaoshangzhijia" unicode="&#58903;" d="M1007 423.5l-490.9 462c-2 1.9-5.1 1.9-7.2 0L18 423.5c-7.4-7-9.8-17-6-26.4 3.8-9.4 12.9-14.9 23.1-14.9l160.4 0L195.5-110c0-2.8 2.3-5.1 5.1-5.1l218.7 0 198.9 0 218.6 0c2.9 0 5.2 2.3 5.2 5.2L842 382.2l147.9 0c10.2 0 19.3 5.4 23.1 14.9C1016.8 406.5 1014.4 416.6 1007 423.5zM444.1-65.4 444.1 158.4l149.2 0 0-223.8L444.1-65.4zM797.4 432c-2.9 0-5.2-2.3-5.2-5.2l0-492.2L643.1-65.4 643.1 202.1c0 3.4-2.7 6.1-6.1 6.1L399.6 208.2c-2.9 0-5.2-2.3-5.2-5.2l0-268.4L245.2-65.4 245.2 425.2c0 3.7-3.1 6.8-6.8 6.8L97.6 432 512.5 822.4 927.4 432 797.4 432zM409.3 483.4C344.4 363.3 466.5 241.6 587 306.2c17.3 9.3 31.7 23.6 41 40.8 65.2 120.3-57.2 242.4-177.9 177.2C432.9 514.9 418.6 500.5 409.3 483.4zM471.6 478.6c76.9 47.6 158.3-33.5 110.7-110.2-4.2-6.8-10.1-12.6-16.9-16.7C488.6 305 408 385.4 454.9 461.9 459.1 468.6 464.8 474.4 471.6 478.6z"  horiz-adv-x="1024" />

    
    <glyph glyph-name="shequ" unicode="&#58904;" d="M369 461l300 0 0-51-300 0 0 51ZM369 335l300 0 0-50-300 0 0 50ZM369 211l300 0 0-52-300 0 0 52ZM1010.8 426.9 530.1 879.3c-9.7 9.1-24.7 9.1-34.4 0L15 426.9c-7.5-7-9.9-17.2-6.1-26.7 3.8-9.5 13-15.1 23.3-15.1L194 385.1l0-475.5c0-13.8 10.9-24.5 24.7-24.5l601 0c13.8 0 24.3 10.7 24.3 24.5L844 385l149.7 0c10.2 0 19.5 5.6 23.3 15.1C1020.7 409.6 1018.3 419.8 1010.8 426.9zM819.7 436c-13.8 0-24.7-13.5-24.7-27.3L795-65 243-65 243 408.7c0 13.8-10.5 27.3-24.3 27.3L95.2 436 512.9 829.2 930.6 436 819.7 436z"  horiz-adv-x="1024" />

    
    <glyph glyph-name="xiaoxi" unicode="&#58906;" d="M257 586l505 0 0-50-505 0 0 50ZM257 385l505 0 0-50-505 0 0 50ZM753.2 84c1.3 16.1 12.8 22.9 15.1 24.2 134.6 78.2 215 210.8 215 354.6 0 232.7-210.9 422.1-470.2 422.1C253.9 884.8 43 695.5 43 462.8c0-228.6 203.6-415.4 456.6-421.9 27.6-40.3 129.7-161 364.6-161 10.4 0 19.7 6.6 23.1 16.5 3.4 9.8 0.2 20.8-8 27.2C761.3 16.5 751.8 66.7 753.2 84zM534.7 76.8c-4.3 7.9-12.5 12.9-21.6 12.9C280.9 89.7 91.9 257 91.9 462.8s189 373.1 421.3 373.1 421.3-167.4 421.3-373.1c0-126.2-71.3-242.9-189.2-311.5-13.4-6.6-36.9-27-40.5-61.3-4.6-44.4 25.1-97 88.4-156.8C602.9-43.2 537.6 71.5 534.7 76.8z"  horiz-adv-x="1024" />

    
    <glyph glyph-name="zizhufuwu" unicode="&#58907;" d="M512.9 883.8c-276.3 0-501.2-224.8-501.2-501.2 0-276.3 224.8-501.2 501.2-501.2 276.3 0 501.2 224.8 501.2 501.2C1014.1 658.9 789.3 883.8 512.9 883.8zM512.9-68.5c-248.7 0-451.1 202.3-451.1 451.1 0 248.7 202.3 451.1 451.1 451.1C761.7 833.6 964 631.3 964 382.6 964 133.9 761.7-68.5 512.9-68.5zM445.6 257.1 285.8 416.9 250.2 381.3 445.6 185.9 792 532.3 756.4 567.9Z"  horiz-adv-x="1024" />

    
    <glyph glyph-name="bodadianhua" unicode="&#58908;" d="M814.5-125 814.5-125c-21.7 0-37.2 7.3-42.9 10.4-149.3 66.1-316.2 198.2-446.7 353.7C190.8 399 98.4 558.2 57.6 699.6c-7 19.4-7.7 64.8 37.4 102.6l97.4 81.7c10.8 9 26.8 7.6 35.8-3.1l157.8-188c6.7-7.9 7.8-19.1 3-28.2l-65.3-124.2c22.1-45.9 117.6-228 291.6-346.2l117.2 14.1 44.7 2.5c7.8 0.5 15.7-2.9 20.8-9.1l166.5-198.5c4.3-5.2 6.5-11.8 5.9-18.6-0.6-6.7-3.8-12.9-9-17.3L883.5-98C862.5-115.7 838.6-125 814.5-125zM796.5-70c0 0 7.4-4 18-4l0 0c12.2 0 24.4 5 36.3 15l58.4 49-142 169.2-30.3-1.6-124.9-15.1c-6-0.7-12 0.7-17.1 4C377.3 290.1 276.2 521.2 272 531c-3 7.1-2.7 15.1 0.9 21.9l63.2 120.2L205.6 828.6l-77.9-65.4c-28-23.5-22.2-46.1-21.5-48.5 38.6-133.7 130-290.5 257.6-442.7C490 121.6 650.5-5.5 793.4-68.4 794.4-68.9 795.5-69 796.5-70L796.5-70z"  horiz-adv-x="1024" />

    
    <glyph glyph-name="dianzibaodan" unicode="&#58909;" d="M964.5 784c-4.6 4.9-11.2 7.7-18.1 8-90.5 2.9-341.2 24.4-413.2 87.6-9.9 8.7-25.5 8.5-35.2-0.5C430.6 816.4 177.3 794.9 85.3 792c-6.8-0.2-13.3-3-17.8-7.7-4.6-4.7-6.9-11-6.5-17.3 2.6-36.3 67.1-889.9 454.9-889.9 361.7 0 451.2 853 454.8 889.3C971.4 772.7 969.1 779.1 964.5 784zM515.9-76c-308.1 0-389.2 684.4-402.4 822.1 81.3 4.2 307.3 21.4 402.7 86 97.9-63.9 323.2-81.6 401.5-85.9C888.8 495.6 769.5-76 515.9-76zM491 657 491 431 314 431 314 380 491 380 491 153 541 153 541 380 718 380 718 431 541 431 541 657Z"  horiz-adv-x="1024" />

    
    <glyph glyph-name="yijianfankui" unicode="&#58915;" d="M813.5 359.9c-13.8 0-25.5-10.6-25.5-23.7L788-64 92-64 92 834l696 0 0-67.4c0-13.1 11.7-23.7 25.5-23.7s25.5 10.6 25.5 23.7L839 859.1c0 13.1-10.9 23.9-24.7 23.9L67.2 883C53.4 883 43 872.2 43 859.1l0-948.7c0-13.1 10.4-24.4 24.2-24.4l747.1 0c13.8 0 24.7 11.3 24.7 24.4L839 336.2C839 349.3 827.3 359.9 813.5 359.9zM465.6 210.4M465.6 210.4l146.8 13.3L982.6 592c4.7 4.7 7.5 10.3 7.5 16.9 0 6.6-2.5 12.6-7.2 17.2l-91.7 91.6c-9.3 9.3-25.9 9.2-35.2-0.1L486.2 347.7 465.6 210.4zM583.9 261.8l-65.9-9.4 9.4 65.9 346.3 346.3 56.5-56.5L583.9 261.8z"  horiz-adv-x="1024" />

    
    <glyph glyph-name="xinjian" unicode="&#58917;" d="M995 410 538 410 538 867 486 867 486 410 29 410 29 358 486 358 486-99 538-99 538 358 995 358Z"  horiz-adv-x="1024" />

    
    <glyph glyph-name="gouwudai" unicode="&#58977;" d="M739.257887 518.859477 640.61424 518.859477c-26.087145 0-47.235814-21.147646-47.235814-47.235814 0-26.087145 21.147646-47.235814 47.235814-47.235814l98.644671 0c41.457204 0 75.184353-33.727149 75.184353-75.184353l0-2.119267 26.968212-300.002678c-0.991584-40.599673-34.326806-73.318866-75.160817-73.318866L262.008342-26.237315c-40.832987 0-74.16821 32.719192-75.159794 73.318866l26.968212 300.002678 0 2.119267c0 41.457204 33.727149 75.184353 75.18333 75.184353l88.444355 0c26.087145 0 47.235814 21.147646 47.235814 47.235814 0 26.087145-21.147646 47.235814-47.235814 47.235814l-88.444355 0c-92.78215 0-168.407548-74.871221-169.638585-167.367869l-27.007097-300.425304 0-2.119267c0-93.548606 76.106352-169.654958 169.653935-169.654958l504.241292 0c93.548606 0 169.654958 76.106352 169.654958 169.654958l0 2.119267-27.007097 300.425304C907.666458 443.988256 832.04106 518.859477 739.257887 518.859477zM282.135752 576.892195c26.087145 0 47.235814 21.147646 47.235814 47.235814 0 48.459688 18.218944 90.828658 52.68799 122.527614 34.172287 31.42778 81.07655 48.734958 132.069945 48.734958 50.993394 0 97.896634-17.307178 132.070968-48.734958 34.468023-31.698956 52.68799-74.067926 52.68799-122.527614 0-26.087145 21.147646-47.235814 47.235814-47.235814s47.235814 21.147646 47.235814 47.235814c0 74.507948-29.55206 142.717446-83.211167 192.06434C658.490376 863.698317 588.875878 889.860163 514.1295 889.860163S369.768625 863.698317 318.111105 816.19235c-53.66013-49.347918-83.211167-117.556393-83.211167-192.06434C234.899938 598.039841 256.047584 576.892195 282.135752 576.892195z"  horiz-adv-x="1024" />

    
    <glyph glyph-name="jindu" unicode="&#58932;" d="M885.669468 708.655148C801.26308 793.061536 689.039135 839.546244 569.671491 839.546244S338.078879 793.06256 253.673513 708.655148c-84.406388-84.406388-130.891096-196.628286-130.891096-315.997977 0-15.470343 0.807389-30.868031 2.378164-46.15111l-58.424644 53.03489c-14.501272 13.163811-36.930097 12.07706-50.093908-2.422166-13.163811-14.502295-12.078083-36.930097 2.423189-50.093908l120.759341-109.617583c6.791683-6.166443 15.321964-9.204639 23.825638-9.204639 2.293229 0 4.580319 0.237407 6.835685 0.678452 1.087774-0.099261 2.178619-0.154519 3.26844-0.154519 9.735735 0 19.431561 3.985778 26.435069 11.812023l108.774379 121.518634c13.062504 14.592346 11.822257 37.011962-2.771113 50.076512-14.592346 13.059434-37.015032 11.821233-50.074466-2.77316l-59.187007-66.121953c-2.140757 16.314571-3.220345 32.81743-3.220345 49.418526 0 207.305463 168.657234 375.963721 375.963721 375.963721S945.637258 599.96468 945.637258 392.658194 776.98207 16.694473 569.673537 16.694473c-99.047854 0-192.535061 38.188764-263.23631 107.532085-13.984503 13.716396-36.436864 13.497409-50.15019-0.487094-13.713326-13.983479-13.496385-36.433794 0.48607-50.149167 84.042091-82.427314 195.165981-127.822201 312.90043-127.822201 119.367645 0 231.591589 46.483684 315.997977 130.891096s130.891096 196.628286 130.891096 315.997977S970.075857 624.249783 885.669468 708.655148zM546.547841 610.261187c-19.586081 0-35.4637-15.876596-35.4637-35.4637l0-214.202547c0-19.586081 15.876596-35.4637 35.4637-35.4637L760.750387 325.131241c19.586081 0 35.4637 15.876596 35.4637 35.4637 0 19.586081-15.876596 35.4637-35.4637 35.4637l-178.740894 0 0 178.740894C582.01154 594.384591 566.133921 610.261187 546.547841 610.261187z"  horiz-adv-x="1024" />

    
    <glyph glyph-name="chengxinwangzhan" unicode="&#58938;" d="M496.479515 479.293343c97.191576 0 175.780469 78.588893 175.780469 175.780469 0 96.731088-78.588893 175.319981-175.780469 175.319981-96.731088 0-175.319981-78.588893-175.780469-175.319981C321.159534 557.882236 399.756613 479.293343 496.479515 479.293343zM496.479515 760.637056c58.58735 0 106.023732-47.436382 106.023732-105.563244 0-58.58735-47.428196-106.023732-106.023732-106.023732-58.59656 0-105.563244 47.436382-106.023732 106.023732C390.915247 713.200674 437.891142 760.637056 496.479515 760.637056zM597.641519 436.780087c-23.657816 0-45.592384-5.221932-65.190745-15.519462-17.509792-9.200546-24.246217-30.853705-15.045671-48.365544 9.201569-17.508769 30.852682-24.24417 48.365544-15.045671 9.346879 4.91187 19.772322 7.299243 31.871895 7.299243 46.806026 0 84.886319-37.284161 84.886319-83.112929 0-119.955022-142.673443-190.252065-185.582719-208.674647-43.123147 18.424628-186.514951 88.729857-186.514951 208.674647 0 45.828768 38.07927 83.112929 84.886319 83.112929 10.583033 0 20.292162-1.920746 28.857235-5.709025 18.090007-7.998161 39.241746 0.179079 47.241954 18.270109 8.000208 18.09103-0.179079 39.241746-18.269086 47.241954-17.749246 7.848759-37.205367 11.82942-57.830103 11.82942-86.304621 0-156.517753-69.418023-156.517753-154.744363 0-80.553641 43.499723-155.073868 125.797078-215.506239 59.138912-43.427068 117.877711-64.627926 120.350019-65.510016 3.89061-1.38658 7.958252-2.080382 12.028964-2.080382 4.086062 0 8.173147 0.699941 12.07706 2.097778 2.461051 0.881067 60.97063 22.094204 119.868041 65.537645 81.933057 60.434417 125.241422 134.939295 125.241422 215.461213C754.160295 367.362065 683.946141 436.780087 597.641519 436.780087z"  horiz-adv-x="1024" />

    
    <glyph glyph-name="guanbi" unicode="&#58939;" d="M852.485695 679.973922 801.835108 730.625532 512 440.790424 222.164892 730.625532 171.514305 679.973922 461.34839 390.139837 171.514305 100.304729 222.164892 49.653119 512 339.488227 801.835108 49.653119 852.485695 100.304729 562.650587 390.139837Z"  horiz-adv-x="1024" />

    
    <glyph glyph-name="lajitong" unicode="&#58940;" d="M723.499995 44.766832 302.128085 44.766832 302.128085 551.478386l-71.631434 0 0-513.51961c0-35.744086 29.079292-64.823378 64.822354-64.823378l434.989045 0c35.744086 0 64.823378 29.079292 64.823378 64.823378L795.131429 551.478386l-71.631434 0L723.499995 44.766832zM375.047862 467.238796l71.631434 0 0-422.293909-71.631434 0 0 422.293909ZM571.522652 467.238796l71.631434 0 0-422.293909-71.631434 0 0 422.293909ZM365.838106 719.139943l294.712185 0 0-47.242977 71.631434 0 0 68.555375c0 27.745924-22.573111 50.319036-50.319036 50.319036L344.525708 790.771377c-27.745924 0-50.319036-22.573111-50.319036-50.319036l0-68.555375 71.631434 0L365.838106 719.139943zM827.860854 671.727097 196.138122 671.727097c-19.780509 0-35.815717-16.035208-35.815717-35.815717s16.035208-35.815717 35.815717-35.815717l631.722732 0c19.780509 0 35.815717 16.035208 35.815717 35.815717S847.641363 671.727097 827.860854 671.727097z"  horiz-adv-x="1024" />

    
    <glyph glyph-name="xiala" unicode="&#58943;" d="M513.791809 114.552222c163.063843 0 295.742654 150.677744 295.742654 335.88798 0 129.319298-66.496483 248.574379-169.420621 303.812447-11.270694 6.052856-25.223474 1.803066-31.242562-9.411347-6.0416-11.236925-1.825578-25.234731 9.422603-31.253818 88.13634-47.314609 145.076166-150.59895 145.076166-263.147282 0-159.750377-111.963001-289.723567-249.577219-289.723567S264.213567 290.690848 264.213567 450.441225c0 115.445312 59.013045 219.800032 150.327774 265.86416 11.383258 5.747911 15.959483 19.633153 10.211573 31.005155-5.747911 11.383258-19.588127 15.993253-30.993898 10.222829C287.026132 703.680856 218.049155 583.141526 218.049155 450.441225 218.049155 265.229966 350.727966 114.552222 513.791809 114.552222zM521.974166 394.234085c44.541449 0 75.705216 40.281425 75.705216 89.781816 0 42.690288-22.036899 78.375022-68.085678 87.428212L529.593703 749.31622c0 0.168846 5.601578 16.84976 17.435091 33.553187 17.176195 24.299429 53.371558 37.136805 99.829659 37.136805 12.758582 0 24.352641 10.335393 24.352641 23.082718s-9.688663 23.082718-22.447245 23.082718c-78.443583 0-122.426307-30.80254-140.707672-56.634882-20.24202-28.615735-26.558889-57.074903-26.558889-60.219523l0-181.535543c-22.512736-12.82919-46.360887-45.401026-46.360887-83.764775C435.138448 434.51551 477.432717 394.234085 521.974166 394.234085zM521.974166 527.633305c19.092847 0 34.623565-19.565615 34.623565-43.617403s-15.530718-43.617403-34.623565-43.617403c-19.092847 0-34.623565 19.565615-34.623565 43.617403S502.881318 527.633305 521.974166 527.633305zM667.636686 78.509331 513.49812-56.952874 352.868723 78.801996c-9.715269 8.238638-24.321942 6.976902-32.526811-2.727111-8.227382-9.737782-7.010671-24.299429 2.727111-32.526811l175.822424-148.592246c4.305049-3.6399 9.602705-5.455245 14.899338-5.455245 5.432733 0 10.886955 1.915629 15.238053 5.747911l169.08293 148.592246c9.580193 8.407484 10.526751 22.992667 2.096754 32.571836C691.800016 85.992769 677.17083 86.928071 667.636686 78.509331z"  horiz-adv-x="1024" />

    
    <glyph glyph-name="man" unicode="&#58951;" d="M698.101535 228.641653c-42.305525 26.154683-60.310597 44.079938-62.033845 67.547419-1.723248 23.467481 20.656459 42.735313 40.456411 48.63365 19.799952 5.89936 32.323173 33.075303 26.971281 56.740282-5.352915 23.664979 15.390525 47.89073 26.971281 59.44181 11.580756 11.55108 16.568351 33.314757 18.879999 67.547419 2.311649 34.232662-13.256932 49.949622-26.971281 59.44181-13.71435 9.492188-20.62269 31.137161-16.182564 40.528042 4.440126 9.391904 4.743024 29.584806 5.393847 45.932122 0.651846 16.347317-1.118474 26.998911-8.091282 62.144362-7.42511 37.425378-88.804559 94.565772-191.496405 94.565772s-184.070272-57.140395-191.496405-94.565772c-6.972808-35.145451-8.742105-45.796022-8.091282-62.144362 0.651846-16.347317 0.954745-36.540218 5.393847-45.932122 4.440126-9.390881-2.469238-31.035854-16.182564-40.528042-13.71435-9.492188-29.28293-25.209148-26.971281-59.44181 2.311649-34.231639 7.299243-55.996338 18.879999-67.547419 11.580756-11.55108 32.323173-35.776831 26.971281-59.44181-5.351891-23.664979 7.17133-50.840922 26.971281-56.740282 19.799952-5.89936 42.179658-25.166169 40.456411-48.63365-1.723248-23.467481-19.72832-41.392736-62.033845-67.547419-42.306548-26.15366-213.072817-126.989229-213.072817-126.989229l0-164.815743 323.655378 0c0 0 29.668717 40.497343 29.668717 124.286678 0 0 4.347005 21.615297 45.851281 21.615297s45.851281-21.615297 45.851281-21.615297c0-83.789335 29.668717-124.286678 29.668717-124.286678l323.655378 0L911.174352 101.652424C911.175375 101.652424 740.408083 202.48697 698.101535 228.641653zM529.48114 136.776386l-34.96228 0c-15.667841 0-28.370141 12.701277-28.370141 28.370141 0 15.668865 12.701277 28.370141 28.370141 28.370141l34.96228 0c15.667841 0 28.370141-12.701277 28.370141-28.370141C557.851281 149.478685 545.148981 136.776386 529.48114 136.776386z"  horiz-adv-x="1024" />

    
    <glyph glyph-name="gouwuche" unicode="&#58880;" d="M853.212242 223.325577 381.131417 223.325577c-50.238195 0-94.314039 35.670407-104.789625 84.803431l-81.548294 382.487298c-3.499707 16.382109-18.195408 28.275997-34.93772 28.275997L42.056861 718.892303c-19.730367 0-35.716456 15.986089-35.716456 35.716456s15.986089 35.716456 35.716456 35.716456l117.798916 0c50.238195 0 94.314039-35.670407 104.789625-84.803431l81.548294-382.487298c3.499707-16.382109 18.195408-28.275997 34.93772-28.275997l472.080825 0c16.753569 0 31.077809 11.405771 34.821063 27.740808L945.631118 574.003402c2.441609 10.661827-0.069585 21.682835-6.894014 30.240745-6.813173 8.54563-16.98586 13.45136-27.927049 13.45136L521.253758 617.695506c-19.730367 0-35.716456 15.986089-35.716456 35.716456s15.986089 35.716456 35.716456 35.716456l389.556297 0c32.810267 0 63.352887-14.719236 83.792405-40.367383 20.450774-25.659403 27.973098-58.725496 20.660552-90.709955l-57.609069-251.504104C946.422134 257.54289 903.473973 223.325577 853.212242 223.325577zM420.889933 43.999352m-71.432912 0a69.806 69.806 0 1 0 142.865825 0 69.806 69.806 0 1 0-142.865825 0ZM802.942325 43.999352m-71.432912 0a69.806 69.806 0 1 0 142.865825 0 69.806 69.806 0 1 0-142.865825 0Z"  horiz-adv-x="1024" />

    
    <glyph glyph-name="sousuo" unicode="&#58926;" d="M980.035696-113.388211c-9.026584 0-18.041912 3.518127-24.820292 10.521634L655.241378 207.224878c-13.006222 13.444197-12.938684 34.791387 0.135076 48.157813 61.827137 63.209624 95.876628 146.731876 95.876628 235.178277 0 185.481412-150.902872 336.373027-336.384283 336.373027S78.496795 676.042379 78.496795 490.560968 229.388411 154.176684 414.868799 154.176684c42.896996 0 84.658122 7.959276 124.148531 23.64042 17.739013 7.059789 37.792745-1.61887 44.841278-19.346627 7.037277-17.7165-1.61887-37.804001-19.346627-44.841278-47.629787-18.918885-97.978499-28.519544-149.644205-28.519544-223.555565 0-405.439032 181.883467-405.439032 405.450289 0 223.555565 181.883467 405.439032 405.439032 405.439032 223.566822 0 405.450289-181.883467 405.450289-405.439032 0-95.314833-32.813337-185.896874-93.03286-258.470773l277.56976-286.934035c13.265118-13.71435 12.893658-35.567054-0.809435-48.832172C997.346967-110.161726 988.680587-113.388211 980.035696-113.388211z"  horiz-adv-x="1024" />

    
    <glyph glyph-name="xia" unicode="&#58888;" d="M512.005117 79.540823c-8.980535 0-17.96107 3.428076-24.816199 10.283204L12.854772 564.146916c-13.710256 13.699-13.710256 35.933397 0 49.632397 13.710256 13.710256 35.922141 13.710256 49.632397 0l449.517947-449.50669L961.511807 613.779314c13.710256 13.710256 35.922141 13.710256 49.632397 0 13.710256-13.699 13.710256-35.933397 0-49.632397l-474.322889-474.322889C529.966187 82.968899 520.985652 79.540823 512.005117 79.540823z"  horiz-adv-x="1024" />

    
    <glyph glyph-name="xiaoxi1" unicode="&#58911;" d="M98.839099-50.031231c-11.06808 0-22.307052 1.974981-33.216519 6.084579-36.610826 13.770632-60.269665 47.940872-60.269665 87.049588L5.352915 686.732859c0 57.691957 46.930869 104.622826 104.622826 104.622826l804.048519 0c57.691957 0 104.622826-46.930869 104.622826-104.622826l0-505.676991c0-57.691957-46.930869-104.622826-104.622826-104.622826L448.296119 76.433042c-19.264762 0-34.874275 15.609513-34.874275 34.874275 0 19.264762 15.609513 34.874275 34.874275 34.874275l465.72814 0c19.230993 0 34.874275 15.643282 34.874275 34.874275l0 505.676991c0 19.230993-15.643282 34.874275-34.874275 34.874275L109.97574 721.607134c-19.230993 0-34.874275-15.643282-34.874275-34.874275l0-643.629923c0-14.530948 10.534937-20.059871 15.064091-21.762653 4.541433-1.714038 16.108886-4.50664 25.678846 6.436596l101.841479 110.355387c13.05534 14.133905 35.123962 15.041578 49.28038 1.963725 14.145162-13.05534 15.030321-35.123962 1.963725-49.28038l-101.228519-109.674888C150.037155-39.030689 124.914988-50.031231 98.839099-50.031231zM254.985392 426.419112m-56.670697 0a55.38 55.38 0 1 0 113.341395 0 55.38 55.38 0 1 0-113.341395 0ZM508.893242 427.397393m-56.670697 0a55.38 55.38 0 1 0 113.341395 0 55.38 55.38 0 1 0-113.341395 0ZM762.801093 426.419112m-56.670697 0a55.38 55.38 0 1 0 113.341395 0 55.38 55.38 0 1 0-113.341395 0Z"  horiz-adv-x="1024" />

    
    <glyph glyph-name="icon" unicode="&#58919;" d="M516.233418 427.560098c-127.869273 0-231.889371 104.020098-231.889371 231.889371S388.364145 891.337817 516.233418 891.337817 748.122789 787.318742 748.122789 659.448446 644.10269 427.560098 516.233418 427.560098zM516.233418 820.890348c-89.022523 0-161.441902-72.41938-161.441902-161.441902s72.41938-161.441902 161.441902-161.441902 161.441902 72.41938 161.441902 161.441902S605.25594 820.890348 516.233418 820.890348zM736.817302-123.337817 287.060925-123.337817c-47.033199 0-90.719164 21.177322-119.843482 58.109466-29.135574 36.932144-39.557948 84.355223-28.585035 130.105197l24.364921 125.025505c24.468275 102.196567 113.686249 172.552961 217.258139 172.552961 19.458167 0 35.223223-15.766079 35.223223-35.223223 0-19.458167-15.766079-35.223223-35.223223-35.223223-70.871117 0-131.905192-48.134277-148.439774-117.057019l-24.364921-125.025505c-6.214539-26.096355-0.607844-51.643194 15.077394-71.52501 15.685237-19.881816 39.20286-31.290657 64.530712-31.290657l449.755354 0c25.328875 0 48.845475 11.408841 64.530712 31.290657 15.685237 19.893072 21.291932 45.428655 15.387455 70.057589l-25.007557 127.96137c-16.202007 67.454298-77.235059 115.589598-148.118456 115.589598-19.458167 0-35.223223 15.766079-35.223223 35.223223 0 19.458167 15.766079 35.223223 35.223223 35.223223 103.595426 0 192.801121-70.355371 216.937844-171.084517l25.007557-127.96137c10.651594-44.270273 0.240477-91.694375-28.882817-128.626519C827.536466-102.148216 783.850501-123.337817 736.817302-123.337817z"  horiz-adv-x="1024" />

    
    <glyph glyph-name="icon1" unicode="&#58936;" d="M505.688247 889.641175c-273.894044 0-495.929999-222.033909-495.929999-495.929999 0-273.890974 222.035956-495.929999 495.929999-495.929999S1001.61927 119.819179 1001.61927 393.711176C1001.61927 667.607266 779.582291 889.641175 505.688247 889.641175zM750.884692 187.484278l-38.963407-38.966477L505.688247 354.749816 299.456233 148.517801l-38.963407 38.966477 206.233038 206.229968L260.492826 599.943191l38.963407 38.966477 206.233038-206.233038 206.233038 206.233038 38.963407-38.966477L544.652677 393.713222 750.884692 187.484278z"  horiz-adv-x="1024" />

    
    <glyph glyph-name="shang" unicode="&#58937;" d="M536.865794 626.364745l474.291996-474.291996c13.712002-13.712002 13.712002-35.917258 0-49.62926-13.712002-13.712002-35.917258-13.712002-49.62926 0L512 551.97202 62.47147 102.44349c-13.712002-13.712002-35.917258-13.712002-49.62926 0-13.712002 13.712002-13.712002 35.917258 0 49.62926L487.236534 626.364745c6.856001 6.856001 15.860897 10.232837 24.865794 10.232837S530.009793 633.220745 536.865794 626.364745z"  horiz-adv-x="1024" />

    
    <glyph glyph-name="tupian" unicode="&#58941;" d="M817.361733 41.416528 141.961222 41.416528c-43.242873 0-78.431304 35.189454-78.431304 78.431304L63.529919 633.767554c0 43.242873 35.189454 78.431304 78.431304 78.431304l738.425939 0c43.242873 0 78.431304-35.189454 78.431304-78.431304l0-452.514187c0-18.557658-15.055904-33.613562-33.613562-33.613562s-33.613562 15.055904-33.613562 33.613562L891.591341 633.767554c0 6.17156-5.033643 11.20418-11.20418 11.20418L141.961222 644.971733c-6.17156 0-11.20418-5.033643-11.20418-11.20418l0-513.919722c0-6.17156 5.033643-11.20418 11.20418-11.20418l645.923152 0-188.091866 167.279864c-3.807722 3.413749-9.475815 3.76372-13.721513 0.918929l-48.319495-32.760125c-30.703279-20.789489-70.947865-17.529235-97.886401 7.943926l-147.978263 139.947356c-4.180206 3.961218-10.613732 4.113691-14.990413 0.393973l-67.248613-58.189284c-14.048971-12.189623-35.298947-10.613732-47.400566 3.413749-12.167111 14.027481-10.635221 35.254945 3.413749 47.400566l67.402109 58.341756c30.703279 26.282596 75.761498 25.122167 105.020892-2.51631l147.956773-139.947356c3.807722-3.567245 9.67229-4.070712 13.983479-1.137916l48.319495 32.760125c29.761837 20.155039 69.306482 17.572214 96.135524-6.346545L854.586542 139.302929c17.529235-15.559371 23.481807-39.806611 15.143908-61.756529C861.392552 55.596482 840.84354 41.416528 817.361733 41.416528zM690.391946 420.641525c-49.545416 0-89.854471 40.310078-89.854471 89.855494s40.310078 89.832981 89.854471 89.832981 89.832981-40.288588 89.832981-89.832981S739.937362 420.641525 690.391946 420.641525zM690.391946 533.101853c-12.474103 0-22.627347-10.131755-22.627347-22.605857s10.154267-22.62837 22.627347-22.62837 22.605857 10.154267 22.605857 22.62837S702.866049 533.101853 690.391946 533.101853z"  horiz-adv-x="1024" />

    
    <glyph glyph-name="1" unicode="&#58942;" d="M777.105625 543.529695 326.685572 543.529695l0.212847 83.637802c0.132006 50.303636 19.895099 97.525076 55.680081 133.01944 35.679582 35.388963 83.032005 54.86246 133.388853 54.86246 0.184195 0 0.342807 0 0.527002 0 50.541043-0.132006 97.998867-19.841887 133.62626-55.548075 35.599764-35.652976 55.152056-82.978793 55.021073-133.283453-0.053212-22.345915 18.024497-40.528001 40.369389-40.58019 0.053212 0 0.078794 0 0.1054 0 22.319309 0 40.422601 18.05008 40.47479 40.369389 0.184195 71.96496-27.747943 139.686273-78.657376 190.702129-50.88385 50.936038-118.606186 79.105583-190.728735 79.289778-0.237407 0-0.500396 0-0.737803 0-71.859559 0-139.448866-27.800132-190.385928-78.341174-51.173445-50.751843-79.448391-118.315568-79.632585-190.280528l-0.214894-84.257925c-47.98278-4.431935-85.689529-44.913887-85.689529-94.032536l0-428.677888c0-81.819389 66.588514-148.408926 148.408926-148.408926l414.685213 0c81.819389 0 148.408926 66.588514 148.408926 148.408926L871.547483 449.087837C871.547483 501.156675 829.174463 543.529695 777.105625 543.529695zM790.596881 20.40995c0-37.207376-30.250948-67.458324-67.458324-67.458324L308.453344-47.048374c-37.207376 0-67.458324 30.250948-67.458324 67.458324L240.99502 449.087837c0 7.431242 6.061037 13.491255 13.491255 13.491255l522.618326 0c7.431242 0 13.491255-6.061037 13.491255-13.491255L790.595857 20.40995zM585.981894 250.084657 445.610007 250.084657c-22.345915 0-40.47479-18.129898-40.47479-40.47479s18.129898-40.47479 40.47479-40.47479l140.371887 0c22.345915 0 40.47479 18.129898 40.47479 40.47479S608.327809 250.084657 585.981894 250.084657z"  horiz-adv-x="1024" />

    
    <glyph glyph-name="2" unicode="&#58944;" d="M512 106.131435c-259.541151 0-487.299435 183.801143-487.299435 294.916846 0 113.766067 223.008097 294.916846 487.299435 294.916846 187.584306 0 352.46861-90.683349 432.661024-180.555216 35.746132-40.077787 54.639434-79.631642 54.639434-114.362654C999.299435 289.932578 771.541151 106.131435 512 106.131435zM512 622.636029c-234.799654 0-413.970336-157.329235-413.970336-221.587748 0-51.91744 176.425152-221.587748 413.970336-221.587748s413.970336 169.670308 413.970336 221.587748c0 12.149714-9.464559 35.757388-36.032658 65.547879C820.642452 544.270217 676.895561 622.636029 512 622.636029zM512 255.750057c-80.120782 0-145.298224 65.189721-145.298224 145.298224s65.177442 145.298224 145.298224 145.298224 145.298224-65.189721 145.298224-145.298224S592.120782 255.750057 512 255.750057zM512 473.017406c-39.683814 0-71.969125-32.296567-71.969125-71.969125s32.284287-71.969125 71.969125-71.969125 71.969125 32.296567 71.969125 71.969125S551.683814 473.017406 512 473.017406z"  horiz-adv-x="1024" />

    
    <glyph glyph-name="boshihoutubiao" unicode="&#58952;" d="M227.730655 335.268112l0-162.439626 284.269345-154.317645L796.269345 172.828486l0 162.439626L512 180.950468 227.730655 335.268112zM512 749.490182 65.290005 505.829719l446.708971-243.659439L877.489158 461.159334l0-280.208866 81.219813 0 0 324.879252L512 749.490182z"  horiz-adv-x="1024" />

    
    <glyph glyph-name="fasong" unicode="&#58881;" d="M416.493809-109.381967c-5.256724 0-10.565636 1.045819-15.59314 3.240811-14.317077 6.201236-23.605627 20.339234-23.605627 35.957957L377.295042 218.371752c0 11.994172 5.486968 23.325241 14.903431 30.776957 9.416464 7.426133 21.717627 10.106172 33.405831 7.349385l402.323065-96.133478 84.08814 599.541799L157.439752 323.234031l135.741567-34.911114c20.952194-5.41022 33.583886-26.770713 28.199249-47.748491-5.41022-20.977777-26.693965-33.583886-47.748491-28.199249L45.075615 271.172305c-15.414061 3.980661-26.897603 16.869203-29.067013 32.640398-2.169409 15.771195 5.435803 31.287587 19.216667 39.249933l907.160945 524.972453c12.964266 7.477298 29.067013 6.966669 41.520649-1.403976 12.428054-8.370645 19.012006-23.121604 16.919345-37.948287l-101.263311-721.9108c-1.530866-10.948353-7.605212-20.721951-16.741289-26.948769-9.110495-6.226818-20.441565-8.268314-31.185256-5.741771L455.692576 168.709679l0-148.450007 80.133062 75.079976c15.771195 14.750959 40.551578 14.010085 55.403844-1.812275 14.801101-15.796778 13.984503-40.602743-1.812275-55.403844l-146.128125-136.915299C435.889555-105.732857 426.242847-109.381967 416.493809-109.381967zM416.468227 179.172985c-9.289574 0-18.629289 3.291976-26.106588 9.978259-16.128329 14.443967-17.506722 39.22435-3.088338 55.352679L595.517135 477.246731c14.443967 16.128329 39.198767 17.532305 55.352679 3.088338 16.128329-14.443967 17.506722-39.22435 3.088338-55.352679L445.714318 192.239582C437.956633 183.587528 427.237501 179.172985 416.468227 179.172985z"  horiz-adv-x="1024" />

    
    <glyph glyph-name="shoucang" unicode="&#58882;" d="M512.105401-74.060507l-19.34151 10.525728c-18.97312 10.341532-465.060945 256.727059-465.060945 551.926338 0 189.676967 142.073786 343.987449 316.698942 343.987449 60.208267 0 117.600395-17.894555 167.756725-52.023864 50.261731 34.130332 107.575064 52.023864 167.441547 52.023864 174.625156 0 316.698942-154.310481 316.698942-343.987449 0-295.199279-445.878047-541.584806-464.851167-551.926338L512.105401-74.060507zM344.400864 751.539864c-130.047892 0-235.859799-118.048603-235.859799-263.148305 0-216.781278 320.619228-420.694481 403.537729-469.772246 82.891895 49.155537 403.379117 253.359358 403.379117 469.772246 0 145.099702-105.811908 263.148305-235.859799 263.148305-51.261501 0-100.232842-18.262946-141.573389-52.813856l-25.999141-21.683858-25.920346 21.762653C445.028703 733.303524 396.004149 751.539864 344.400864 751.539864z"  horiz-adv-x="1024" />

    
    <glyph glyph-name="01" unicode="&#58884;" d="M825.344 501.341091c-19.269818 0-34.909091-15.616-34.909091-34.909091l0-432.965818L231.214545 33.466182 231.214545 466.432c0 19.293091-15.616 34.909091-34.909091 34.909091s-34.909091-15.616-34.909091-34.909091l0-467.874909c0-19.293091 15.616-34.909091 34.909091-34.909091l629.038545 0c19.269818 0 34.909091 15.639273 34.909091 34.909091L860.253091 466.432C860.253091 485.701818 844.613818 501.341091 825.344 501.341091zM615.540364 58.181818c19.269818 0 34.909091 15.616 34.909091 34.909091l0 279.272727c0 19.293091-15.639273 34.909091-34.909091 34.909091l-210.129455 0c-19.293091 0-34.909091-15.616-34.909091-34.909091l0-279.272727c0-19.293091 15.616-34.909091 34.909091-34.909091s34.909091 15.616 34.909091 34.909091L440.32 337.454545l140.311273 0 0-244.363636C580.631273 73.797818 596.270545 58.181818 615.540364 58.181818zM894.813091 827.159273c-0.465455 0-0.884364-0.116364-1.326545-0.139636-0.442182 0.023273-0.884364 0.139636-1.326545 0.139636L132.445091 827.159273c-0.814545 0-1.582545-0.186182-2.397091-0.232727-0.814545 0.046545-1.559273 0.232727-2.397091 0.232727-19.293091 0-34.909091-15.616-34.909091-34.909091l0-105.890909c0-72.122182 58.670545-130.816 130.816-130.816 37.911273 0 71.982545 16.314182 95.883636 42.146909 23.901091-25.832727 57.995636-42.146909 95.883636-42.146909 37.888 0 71.982545 16.314182 95.883636 42.146909 23.924364-25.856 57.995636-42.146909 95.906909-42.146909 37.888 0 71.982545 16.314182 95.883636 42.146909 23.924364-25.856 57.995636-42.146909 95.906909-42.146909 72.122182 0 130.792727 58.670545 130.792727 130.816l0 105.890909C929.722182 811.52 914.106182 827.159273 894.813091 827.159273zM223.557818 625.361455c-33.629091 0-60.997818 27.368727-60.997818 60.997818l0 70.981818 121.972364 0 0-70.981818C284.532364 652.730182 257.186909 625.361455 223.557818 625.361455zM415.348364 625.361455c-33.629091 0-60.997818 27.368727-60.997818 60.997818l0 70.981818 121.972364 0 0-70.981818C476.322909 652.730182 448.954182 625.361455 415.348364 625.361455zM607.138909 625.361455c-33.629091 0-60.997818 27.368727-60.997818 60.997818l0 70.981818 121.972364 0 0-70.981818C668.113455 652.730182 640.744727 625.361455 607.138909 625.361455zM798.929455 625.361455c-33.629091 0-60.997818 27.368727-60.997818 60.997818l0 70.981818 121.972364 0 0-70.981818C859.904 652.730182 832.558545 625.361455 798.929455 625.361455z"  horiz-adv-x="1024" />

    
    <glyph glyph-name="03" unicode="&#58887;" d="M849.082182 824.482909 174.917818 824.482909c-19.293091 0-34.909091-15.616-34.909091-34.909091s15.616-34.909091 34.909091-34.909091l639.278545 0 0-640 0-12.590545 0-22.318545c0-26.717091-21.76-48.477091-48.477091-48.477091s-48.477091 21.76-48.477091 48.477091l0 34.909091c0 0.581818-0.139636 1.117091-0.162909 1.675636-0.069818 1.186909-0.186182 2.350545-0.349091 3.537455-0.186182 1.256727-0.442182 2.490182-0.768 3.700364-0.139636 0.512-0.162909 1.024-0.325818 1.536-0.139636 0.488727-0.418909 0.884364-0.581818 1.349818-0.442182 1.233455-0.954182 2.420364-1.536 3.607273-0.465455 0.954182-0.954182 1.861818-1.489455 2.769455-0.605091 1.000727-1.256727 1.931636-1.978182 2.839273-0.698182 0.907636-1.396364 1.792-2.164364 2.629818-0.744727 0.791273-1.512727 1.512727-2.327273 2.234182-0.861091 0.768-1.722182 1.512727-2.653091 2.187636-0.884364 0.651636-1.815273 1.233455-2.746182 1.792-0.977455 0.581818-1.954909 1.140364-2.978909 1.605818-1.000727 0.465455-2.024727 0.861091-3.072 1.256727-1.093818 0.395636-2.187636 0.744727-3.328 1.024-1.024 0.256-2.071273 0.442182-3.141818 0.605091-1.233455 0.186182-2.490182 0.325818-3.746909 0.372364-0.535273 0.023273-1.024 0.162909-1.559273 0.162909-0.581818 0-1.117091-0.139636-1.675636-0.162909-1.186909-0.069818-2.350545-0.186182-3.537455-0.349091-1.256727-0.186182-2.490182-0.442182-3.700364-0.768-0.512-0.139636-1.024-0.162909-1.536-0.325818L226.676364 8.052364c-3.630545-0.116364-8.704 0.116364-10.938182 2.280727-4.631273 4.514909-6.376727 17.896727-5.841455 25.111273 0.093091 1.093818 0.162909 2.187636 0.162909 3.281455L210.059636 673.466182c0 19.293091-15.616 34.909091-34.909091 34.909091s-34.909091-15.616-34.909091-34.909091L140.241455 40.029091c-0.674909-10.472727-1.349818-51.828364 26.344727-79.243636 10.775273-10.682182 29.323636-22.574545 58.437818-22.574545 3.793455 0 7.773091 0.209455 11.938909 0.628364 2.327273 0.256 4.631273 0.721455 6.842182 1.442909L648.657455 67.490909c6.237091-59.415273 56.017455-106.053818 117.061818-106.053818 65.233455 0 118.295273 53.061818 118.295273 118.295273l0 22.318545 0 12.590545 0 674.909091C883.991273 808.866909 868.375273 824.482909 849.082182 824.482909zM257.536 484.608c0-19.293091 15.616-34.909091 34.909091-34.909091l439.272727 0c19.269818 0 34.909091 15.616 34.909091 34.909091s-15.639273 34.909091-34.909091 34.909091L292.445091 519.517091C273.152 519.517091 257.536 503.877818 257.536 484.608zM732.672 404.596364 293.399273 404.596364c-19.293091 0-34.909091-15.616-34.909091-34.909091s15.616-34.909091 34.909091-34.909091l439.272727 0c19.269818 0 34.909091 15.616 34.909091 34.909091S751.965091 404.596364 732.672 404.596364zM293.399273 288c-19.293091 0-34.909091-15.616-34.909091-34.909091 0-19.269818 15.616-34.909091 34.909091-34.909091l254.068364 0c19.269818 0 34.909091 15.639273 34.909091 34.909091 0 19.293091-15.639273 34.909091-34.909091 34.909091L293.399273 288zM731.717818 288c-19.269818 0-34.909091-15.616-34.909091-34.909091 0-19.269818 15.639273-34.909091 34.909091-34.909091l1.931636 0c19.269818 0 33.931636 15.639273 33.931636 34.909091C767.581091 272.384 751.010909 288 731.717818 288zM732.509091 567.947636c19.269818 0 34.909091 15.616 34.909091 34.909091s-15.639273 34.909091-34.909091 34.909091l-230.632727 0c-19.269818 0-34.909091-15.616-34.909091-34.909091s15.639273-34.909091 34.909091-34.909091L732.509091 567.947636z"  horiz-adv-x="1024" />

    
    <glyph glyph-name="07" unicode="&#58900;" d="M945.245091-19.432727 704.721455 230.423273c47.499636 60.020364 73.309091 133.911273 73.309091 211.386182 0 188.136727-153.064727 341.224727-341.248 341.224727-188.136727 0-341.224727-153.088-341.224727-341.224727s153.064727-341.224727 341.224727-341.224727c44.264727 0 87.342545 8.331636 128 24.808727 17.896727 7.261091 26.507636 27.601455 19.269818 45.451636s-27.601455 26.507636-45.451636 19.269818c-32.325818-13.079273-66.583273-19.735273-101.818182-19.735273-149.643636 0-271.406545 121.739636-271.406545 271.406545 0 149.666909 121.739636 271.406545 271.406545 271.406545 149.666909 0 271.429818-121.739636 271.429818-271.406545 0-70.609455-26.973091-137.495273-75.985455-188.299636-13.032727-13.521455-13.032727-34.909091-0.023273-48.430545l262.702545-272.919273c6.865455-7.121455 16.011636-10.705455 25.157818-10.705455 8.704 0 17.431273 3.258182 24.203636 9.751273C958.184727-55.412364 958.603636-33.326545 945.245091-19.432727z"  horiz-adv-x="1024" />

    
    <glyph glyph-name="06" unicode="&#58892;" d="M979.944727 579.607273c-19.153455 24.064-47.802182 37.841455-78.568727 37.841455L499.432727 617.448727c-19.293091 0-34.909091-15.616-34.909091-34.909091s15.616-34.909091 34.909091-34.909091l401.943273 0c9.378909 0 18.106182-4.212364 23.947636-11.543273 5.841455-7.330909 8.005818-16.802909 5.678545-27.019636l-51.805091-264.424727c-3.211636-14.033455-15.499636-23.784727-29.882182-23.784727L426.658909 220.858182c-14.382545 0-26.973091 10.193455-29.789091 23.296l-75.869091 412.369455c-9.821091 46.056727-51.153455 79.522909-98.257455 79.522909L125.858909 736.046545c-19.293091 0-34.909091-15.616-34.909091-34.909091s15.616-34.909091 34.909091-34.909091l96.884364 0c14.359273 0 26.973091-10.193455 29.789091-23.296l75.869091-412.346182c9.797818-46.056727 51.130182-79.522909 98.257455-79.522909l422.702545 0c47.150545 0 87.435636 32.093091 98.164364 79.104l51.805091 264.424727C1006.173091 524.544 999.121455 555.543273 979.944727 579.607273zM861.626182 12.776727m-69.073455 0a2.968 2.968 0 1 0 138.146909 0 2.968 2.968 0 1 0-138.146909 0ZM418.001455 12.776727m-69.073455 0a2.968 2.968 0 1 0 138.146909 0 2.968 2.968 0 1 0-138.146909 0Z"  horiz-adv-x="1024" />

    
    <glyph glyph-name="05" unicode="&#58916;" d="M535.272727 361.681455c122.298182 0 221.765818 99.490909 221.765818 221.789091C757.038545 705.745455 657.570909 805.236364 535.272727 805.236364c-122.274909 0-221.765818-99.490909-221.765818-221.765818C313.506909 461.149091 412.997818 361.681455 535.272727 361.681455zM535.272727 735.418182c83.805091 0 151.947636-68.165818 151.947636-151.947636 0-83.805091-68.165818-151.970909-151.947636-151.970909-83.781818 0-151.947636 68.165818-151.947636 151.970909C383.325091 667.229091 451.490909 735.418182 535.272727 735.418182zM862.72 74.24l-23.249455 100.584727c-20.712727 86.411636-54.714182 139.962182-160.116364 139.962182-19.269818 0-34.909091-15.639273-34.909091-34.909091s15.639273-34.909091 34.909091-34.909091c58.810182 0 75.170909-15.336727 92.136727-86.132364l23.249455-100.584727c4.421818-18.455273 1.954909-33.815273-7.354182-45.637818-12.427636-15.755636-37.050182-25.157818-65.838545-25.157818L349.021091-12.544c-28.811636 0-53.410909 9.402182-65.838545 25.157818-9.332364 11.822545-11.799273 27.182545-7.307636 45.917091l23.109818 100.049455c17.035636 71.074909 33.419636 86.411636 92.206545 86.411636 19.293091 0 34.909091 15.639273 34.909091 34.909091s-15.616 34.909091-34.909091 34.909091c-105.378909 0-139.380364-53.550545-160.162909-140.218182l-23.109818-100.049455c-9.402182-39.168-2.141091-76.497455 20.433455-105.146182 25.925818-32.884364 69.911273-51.758545 120.669091-51.758545l372.526545 0c50.757818 0 94.72 18.874182 120.669091 51.758545C864.768-1.978182 872.052364 35.374545 862.72 74.24z"  horiz-adv-x="1024" />

    
    <glyph glyph-name="04" unicode="&#58883;" d="M382.021818 243.874909l-221.090909 0 0 187.159273 128 0c19.293091 0 34.909091 15.616 34.909091 34.909091s-15.616 34.909091-34.909091 34.909091l-162.909091 0c-19.293091 0-34.909091-15.616-34.909091-34.909091l0-256.977455c0-19.269818 15.616-34.909091 34.909091-34.909091l256 0c19.293091 0 34.909091 15.639273 34.909091 34.909091S401.291636 243.874909 382.021818 243.874909zM871.307636 214.225455c80.477091 55.342545 129.466182 146.874182 129.466182 245.736727 0 164.491636-133.841455 298.333091-298.333091 298.333091s-298.333091-133.841455-298.333091-298.333091c0-139.706182 99.072-262.353455 235.589818-291.630545 2.466909-0.512 4.933818-0.768 7.354182-0.768 16.081455 0 30.557091 11.194182 34.094545 27.601455 4.049455 18.874182-7.982545 37.399273-26.810182 41.448727-104.517818 22.411636-180.386909 116.340364-180.386909 223.348364 0 126.021818 102.516364 228.514909 228.514909 228.514909s228.514909-102.516364 228.514909-228.514909c0-83.595636-45.637818-160.465455-119.086545-200.634182-0.861091-0.465455-1.582545-1.093818-2.373818-1.629091-0.930909-0.442182-1.885091-0.721455-2.792727-1.256727-16.709818-9.611636-22.434909-30.976-12.823273-47.685818l141.754182-246.085818c6.446545-11.194182 18.199273-17.477818 30.277818-17.477818 5.911273 0 11.915636 1.489455 17.408 4.654545 16.709818 9.611636 22.434909 30.976 12.823273 47.685818L871.307636 214.225455z"  horiz-adv-x="1024" />

    
    <glyph glyph-name="02" unicode="&#58893;" d="M847.476364 632.669091c-117.620364 115.968-283.252364 154.856727-432.267636 101.399273C242.688 672.186182 135.400727 510.813091 138.589091 332.637091l-60.509091 46.778182c-15.243636 11.776-37.166545 8.96-48.965818-6.283636-11.776-15.266909-8.983273-37.189818 6.283636-48.965818l123.042909-95.092364c6.353455-4.910545 13.870545-7.284364 21.341091-7.284364 0.628364 0 1.256727 0.186182 1.885091 0.209455 0.674909-0.046545 1.349818-0.209455 2.024727-0.209455 8.192 0 16.384 2.862545 23.016727 8.680727l108.334545 95.092364c14.498909 12.706909 15.918545 34.769455 3.211636 49.268364-12.730182 14.475636-34.769455 15.918545-49.268364 3.211636l-60.253091-52.898909c-6.260364 152.017455 83.712 290.699636 230.097455 343.226182 123.485091 44.288 261.306182 11.589818 359.68-85.410909 97.652364-96.279273 132.096-232.610909 89.856-355.793455-38.818909-113.221818-135.796364-196.538182-259.421091-222.882909-123.461818-26.228364-245.713455 10.193455-327.028364 97.512727-13.149091 14.103273-35.234909 14.941091-49.338182 1.745455-14.103273-13.125818-14.894545-35.234909-1.745455-49.338182 77.381818-83.083636 184.901818-128.139636 299.240727-128.139636 30.789818 0 62.091636 3.258182 93.393455 9.937455C791.272727-32.512 907.52 67.863273 954.368 204.520727 1005.358545 353.326545 964.398545 517.376 847.476364 632.669091zM522.798545 569.460364c-19.293091 0-34.909091-15.616-34.909091-34.909091l0-232.238545c0-19.269818 15.616-34.909091 34.909091-34.909091l232.238545 0c19.269818 0 34.909091 15.639273 34.909091 34.909091s-15.639273 34.909091-34.909091 34.909091l-197.329455 0 0 197.329455C557.730909 553.821091 542.091636 569.460364 522.798545 569.460364z"  horiz-adv-x="1024" />

    
    <glyph glyph-name="weixin" unicode="&#58905;" d="M673.422727 328.763636c-24.1 0-43.7-19.6-43.7-43.7s19.6-43.7 43.7-43.7 43.7 19.6 43.7 43.7S697.522727 328.763636 673.422727 328.763636zM673.422727 274.090909c-6 0-10.972727 4.877273-10.972727 10.972727 0 6 4.877273 10.972727 10.972727 10.972727 6 0 10.972727-4.877273 10.972727-10.972727C684.3 278.968182 679.422727 274.090909 673.422727 274.090909zM352.690909 569.404545c-28.227273 0-51.109091-22.977273-51.109091-51.109091s22.977273-51.109091 51.109091-51.109091c28.136364 0 51.109091 22.977273 51.109091 51.109091S380.918182 569.404545 352.690909 569.404545zM352.690909 505.445455c-7.031818 0-12.754545 5.722727-12.754545 12.754545s5.722727 12.754545 12.754545 12.754545c7.031818 0 12.754545-5.722727 12.754545-12.754545S359.722727 505.445455 352.690909 505.445455zM585.922727 569.404545c-28.227273 0-51.109091-22.977273-51.109091-51.109091s22.977273-51.109091 51.109091-51.109091c28.227273 0 51.109091 22.977273 51.109091 51.109091S614.059091 569.404545 585.922727 569.404545zM585.922727 505.445455c-7.031818 0-12.754545 5.722727-12.754545 12.754545s5.722727 12.754545 12.754545 12.754545c7.031818 0 12.754545-5.722727 12.754545-12.754545S592.959091 505.445455 585.922727 505.445455zM848.413636 328.763636c-24.1 0-43.7-19.6-43.7-43.7s19.6-43.7 43.7-43.7c24.1 0 43.7 19.6 43.7 43.7S872.518182 328.763636 848.413636 328.763636zM848.413636 274.090909c-6 0-10.972727 4.877273-10.972727 10.972727 0 6 4.877273 10.972727 10.972727 10.972727 6 0 10.972727-4.877273 10.972727-10.972727C859.295455 278.968182 854.418182 274.090909 848.413636 274.090909zM1008.968182 246.05c0 100.909091-81.495455 185.590909-190.845455 208.754545-14.159091 154.831818-166.272727 277.213636-351.581818 277.213636-194.595455 0-352.8-134.95-352.8-300.754545 0-54.204545 16.786364-106.722727 48.859091-152.863636l-43.513636-161.395455 182.404545 48.486364c73.054545-33.009091 159.240909-42.763636 240.359091-27.759091 43.513636-63.863636 124.163636-107.004545 216.445455-107.004545 22.790909 0 45.295455 2.627273 67.054545 7.781818l141.231818-52.518182-18.286364 119.290909C987.490909 144.3 1008.968182 193.627273 1008.968182 246.05zM513.245455 199.254545c-66.586364-9.095455-136.077273 1.781818-194.127273 30.386364l-11.068182 5.440909-96.122727-25.509091 22.318182 82.809091-10.127273 12.940909c-29.354545 37.604545-44.827273 81.118182-44.827273 125.945455 0 129.7 128.854545 235.109091 287.154545 235.109091 146.109091 0 267.086364-89.654545 285.090909-205.286364-1.968182 0-3.940909-0.281818-5.909091-0.377273-5.813636-0.281818-11.627273-0.563636-17.254545-1.127273-2.627273-0.281818-5.25-0.654545-7.877273-1.031818-5.531818-0.75-11.159091-1.5-16.6-2.531818-2.627273-0.468182-5.25-1.127273-7.781818-1.686364-5.345455-1.127273-10.595455-2.345455-15.754545-3.75-2.627273-0.75-5.063636-1.595455-7.595455-2.436364-5.063636-1.595455-10.036364-3.186364-15.004545-4.968182-2.531818-0.936364-4.968182-2.063636-7.409091-3.095455-4.781818-1.968182-9.472727-3.940909-14.068182-6.095455-2.436364-1.127273-4.690909-2.436364-7.127273-3.75-4.5-2.345455-8.909091-4.595455-13.222727-7.127273-2.345455-1.404545-4.5-2.909091-6.75-4.313636-4.127273-2.627273-8.254545-5.25-12.190909-8.063636-2.159091-1.595455-4.218182-3.281818-6.377273-4.968182-3.75-2.909091-7.595455-5.813636-11.159091-8.909091-2.063636-1.781818-3.940909-3.659091-5.909091-5.531818-3.377273-3.186364-6.845455-6.377273-10.036364-9.659091-1.877273-1.968182-3.468182-4.031818-5.345455-6.095455-3-3.468182-6.095455-6.845455-8.909091-10.409091-1.686364-2.159091-3.095455-4.409091-4.690909-6.659091-2.627273-3.659091-5.25-7.222727-7.595455-10.972727-1.5-2.345455-2.718182-4.877273-4.127273-7.313636-2.159091-3.75-4.409091-7.504545-6.281818-11.345455-1.313636-2.627273-2.25-5.440909-3.468182-8.063636-1.686364-3.845455-3.468182-7.595455-4.781818-11.536364-1.031818-2.909091-1.781818-5.909091-2.718182-8.909091-1.127273-3.845455-2.436364-7.595455-3.377273-11.536364-0.845455-3.563636-1.313636-7.222727-1.968182-10.786364-0.563636-3.468182-1.404545-6.845455-1.781818-10.313636-0.75-6.095455-2.063636-12.286364-2.159091-18.568182 0-1.031818-1.313636-2.063636-1.313636-3.186364l0 0 0 0c0-0.377273 1.127273-0.845455 1.127273-1.218182 0.095455-7.127273 1.031818-14.159091 1.877273-21.1 0.563636-5.063636 1.968182-10.036364 2.909091-14.909091 0.468182-2.159091 0.845455-4.409091 1.404545-6.563636C512.772727 201.222727 513.054545 200.190909 513.245455 199.254545zM891.927273 142.704545l-14.068182-11.909091 6.845455-44.359091-56.172727 20.913636-10.222727-2.909091c-19.318182-5.345455-39.481818-8.063636-60.018182-8.063636-95.563636 0-174.431818 58.8-184.186364 134.104545 0 0.095455 0 0.186364-0.095455 0.377273-0.654545 4.968182-0.936364 10.127273-0.936364 15.190909 0 82.527273 82.995455 149.581818 185.027273 149.581818 1.968182 0 3.845455-0.095455 5.722727-0.186364 3.281818-0.095455 6.472727-0.186364 9.659091-0.377273 2.531818-0.186364 5.063636-0.377273 7.504545-0.654545 91.340909-9.095455 162.331818-72.118182 162.331818-148.359091C943.413636 207.413636 925.127273 170.745455 891.927273 142.704545z"  horiz-adv-x="1024" />

    
    <glyph glyph-name="qq" unicode="&#58918;" d="M936.075636 240.965818c-3.653818 35.770182-16.081455 77.009455-34.978909 116.084364l-3.188364 6.562909-0.442182 0c-1.861818 3.886545-3.886545 7.726545-5.794909 11.357091l-4.096 7.773091c-2.583273 4.142545-5.096727 8.378182-7.586909 12.567273l-1.326545 2.187636c-4.119273 106.752-40.704 207.36-103.144727 283.531636-65.349818 80.453818-153.274182 124.765091-247.621818 124.765091-94.510545 0-182.458182-44.311273-247.668364-124.765091l0 0c-45.009455-55.575273-94.859636-167.424-99.072-282.926545-2.746182-3.933091-5.562182-8.587636-8.797091-14.010182-3.956364-6.050909-7.261091-12.776727-10.938182-20.363636l-2.676364-5.515636c-18.874182-38.912-31.278545-80.151273-34.932364-115.851636-5.422545-43.729455 2.466909-78.010182 21.969455-96.232727 1.047273-1.024 2.513455-2.164364 5.934545-4.584727 16.965818-12.590545 36.468364-14.661818 58.833455-5.748364 7.028364 3.467636 14.219636 7.936 21.317818 13.218909l0.232727-0.418909c2.187636-5.12 4.352-9.634909 6.586182-13.777455-7.005091-4.701091-13.917091-9.960727-21.666909-16.546909-18.338909-18.338909-28.020364-38.958545-28.020364-59.624727 0-36.747636 24.878545-67.933091 70.004364-87.784727 57.995636-25.902545 144.802909-33.419636 218.926545-15.941818 21.829818 4.794182 38.772364 10.263273 52.712727 17.058909 15.569455-7.191273 32.325818-12.637091 51.968-16.965818 25.111273-6.4 53.992727-9.774545 83.525818-9.774545 49.966545 0 97.792 9.099636 134.935273 25.786182 44.962909 21.783273 69.701818 52.898909 69.701818 87.645091 0 20.666182-9.681455 41.285818-28.090182 59.694545-7.028364 6.888727-14.103273 12.544-21.806545 17.314909 0.139636 0.279273 0.302545 0.558545 0.465455 0.837818 2.141091 3.933091 4.282182 7.889455 5.329455 10.24 0.232727 0.325818 0.442182 0.674909 0.651636 1.024 7.191273-5.492364 14.917818-10.077091 23.016727-13.591273 21.829818-7.936 41.797818-5.771636 59.531636 7.610182 1.559273 1.024 3.048727 2.164364 3.793455 2.909091C933.701818 163.304727 941.405091 196.654545 936.075636 240.965818zM805.329455 240.477091c-8.727273-3.933091-15.336727-11.124364-18.525091-19.991273-5.794909-15.150545-11.240727-29.463273-18.990545-42.682182-2.466909-4.212364-4.840727-8.401455-7.191273-12.590545-5.422545-9.704727-10.589091-18.897455-15.639273-26.065455-2.466909-2.466909-3.421091-4.980364-4.002909-6.493091l-1.047273-2.420364c-3.281455-9.146182-3.002182-18.757818 0.814545-27.089455 3.886545-8.448 11.077818-14.917818 20.293818-18.222545 14.149818-5.003636 27.298909-12.264727 35.560727-19.502545 4.468364-4.375273 5.818182-7.493818 5.911273-8.052364 0-3.444364-6.237091-12.241455-29.370182-23.272727-27.834182-12.683636-66.56-19.944727-106.24-19.944727-25.995636 0-48.523636 2.187636-68.864 6.679273-18.804364 4.142545-35.351273 10.379636-48.709818 18.199273-5.352727 3.514182-11.613091 5.306182-18.082909 5.306182-6.330182 0-12.939636-1.722182-19.130182-5.213091-11.496727-7.307636-29.277091-13.963636-48.663273-18.245818-21.76-4.514909-44.311273-6.725818-69.026909-6.725818-40.448 0-78.173091 7.074909-106.123636 19.874909-23.296 10.961455-29.509818 19.851636-29.533091 23.109818 0.139636 0.791273 1.466182 3.84 5.957818 8.308364 7.819636 7.68 19.037091 14.056727 35.700364 20.037818l8.215273 4.212364c15.499636 10.333091 19.642182 32.698182 8.727273 49.268364-8.541091 11.659636-16.477091 24.878545-23.598545 39.261091-8.424727 17.082182-14.592 30.882909-19.316364 43.264-2.187636 5.981091-6.749091 10.589091-10.775273 14.638545l-1.908364 1.605818c-7.889455 5.306182-17.757091 7.261091-27.275636 5.329455-9.076364-1.815273-16.779636-6.935273-21.643636-14.336-3.84-5.748364-9.216-12.381091-13.754182-16.919273-3.351273-3.351273-6.469818-6.074182-9.262545-8.215273-0.698182 6.004364-0.791273 15.080727 1.093818 27.857455 3.700364 31.045818 13.707636 64.651636 28.416 95.092364 1.931636 4.491636 4.328727 8.657455 6.586182 12.660364 1.698909 3.025455 3.397818 5.957818 4.840727 8.866909 2.327273 4.631273 5.259636 9.309091 7.936 13.591273l3.072 5.003636c3.490909 5.259636 5.422545 12.125091 5.422545 19.060364 2.210909 95.930182 33.233455 184.32 87.435636 249.041455 52.014545 63.627636 120.669091 98.676364 193.28 98.676364 71.191273 0 139.985455-34.769455 198.632727-100.165818 54.178909-65.838545 85.224727-154.274909 87.412364-248.738909 0-5.538909 1.722182-12.125091 5.12-18.850909l3.444364-6.027636c2.56-4.538182 5.329455-9.448727 7.959273-13.242182 2.606545-5.003636 5.143273-10.123636 7.656727-15.173818l6.050909-12.078545 0.418909 0c13.405091-29.114182 22.225455-59.392 25.6-87.691636 1.326545-13.265455 1.233455-22.062545 0.721455-27.787636-2.629818 2.327273-5.538909 5.329455-8.866909 9.076364-4.142545 4.142545-8.354909 9.378909-12.497455 14.545455-4.119273 7.330909-11.054545 10.775273-17.221818 13.824C823.714909 244.596364 813.824 244.363636 805.329455 240.477091z"  horiz-adv-x="1024" />

    
    <glyph glyph-name="shixinweibo" unicode="&#58920;" d="M725.686364 382.2c-35.231818 6.845455-18.113636 25.786364-18.113636 25.786364s34.459091 56.713636-6.790909 98.018182c-51.136364 51.077273-175.381818-6.518182-175.381818-6.518182-47.422727-14.745455-34.845455 6.681818-28.163636 43.236364 0 42.963636-14.704545 115.740909-141.077273 72.727273-126.290909-43.181818-234.686364-194.654545-234.686364-194.654545-75.431818-100.554545-65.409091-178.309091-65.409091-178.309091 18.804545-171.627273 201.195455-218.781818 343.059091-229.936364 149.25-11.763636 350.690909 51.463636 411.768182 181.177273C871.963636 323.722727 760.972727 375.131818 725.686364 382.2L725.686364 382.2zM410.195455 60.981818c-148.127273-6.904545-267.904545 67.368182-267.904545 166.268182 0 98.954545 119.772727 178.363636 267.904545 185.154545 148.281818 6.845455 268.277273-54.281818 268.277273-153.018182C678.472727 160.490909 558.422727 67.722727 410.195455 60.981818L410.195455 60.981818zM380.681818 347.245455c-149.068182-17.45-131.813636-157.045455-131.813636-157.045455s-1.545455-44.231818 39.954545-66.709091c87.190909-47.213636 176.954545-18.609091 222.331818 39.977273C556.545455 222.004545 529.872727 364.531818 380.681818 347.245455L380.681818 347.245455zM343.072727 151.322727c-27.831818-3.313636-50.25 12.754545-50.25 36.004545 0 23.190909 19.909091 47.490909 47.736364 50.418182 31.972727 2.981818 52.763636-15.463636 52.763636-38.709091C393.327273 175.895455 370.740909 154.472727 343.072727 151.322727L343.072727 151.322727zM430.877273 226.090909c-9.413636-7.013636-21.036364-6.018182-25.981818 2.431818-5.218182 8.227273-3.259091 21.427273 6.295455 28.327273 11.045455 8.227273 22.504545 5.854545 27.5-2.377273C443.686364 246.081818 440.095455 233.381818 430.877273 226.090909L430.877273 226.090909zM798.245455 442.613636c11.981818 0 22.2 8.836364 23.909091 20.486364 0.222727 0.827273 0.331818 1.6 0.331818 2.595455 18.222727 163.618182-134.077273 135.454545-134.077273 135.454545-13.531818 0-24.354545-10.931818-24.354545-24.572727 0-13.418182 10.822727-24.354545 24.354545-24.354545 109.390909 24.131818 85.259091-85.259091 85.259091-85.259091C773.672727 453.436364 784.659091 442.613636 798.245455 442.613636L798.245455 442.613636zM780.463636 728.213636c-52.622727 12.368182-106.740909 1.768182-121.927273-1.159091-1.213636-0.109091-2.318182-1.213636-3.368182-1.436364-0.495455-0.109091-0.881818-0.663636-0.881818-0.663636-14.909091-4.254545-25.845455-18.059091-25.845455-34.459091 0-19.495455 15.790909-35.509091 35.509091-35.509091 0 0 19.159091 2.540909 32.140909 7.677273 12.922727 5.190909 121.927273 3.863636 176.1-87.136364 29.6-66.377273 13.031818-110.772727 10.931818-117.95 0 0-7.013636-17.227273-7.013636-34.236364 0-19.604545 15.790909-31.918182 35.395455-31.918182 16.345455 0 30.095455 2.209091 34.127273 29.931818l0.222727 0C1003.995455 615.122727 874.727273 706.236364 780.463636 728.213636L780.463636 728.213636z"  horiz-adv-x="1024" />

    
    <glyph glyph-name="shixinqq" unicode="&#58921;" d="M851.895455 401.836364c31.972727 82.609091-25.009091 118.131818-25.009091 118.131818 0.918182 149.054545-127.763636 284.395455-280.977273 284.395455-153.081818 0-277.518182-118.259091-280.85-283.386364 0-0.395455-55.231818-48.486364-32.15-122.204545-53.613636-27.331818-130.568182-166.877273-78.622727-257.15 11.609091-20.104545 44.368182 3.55 73.409091 54.4 16.909091-55.231818 31.713636-75.163636 66.75-111.077273-99.209091-19.536364-89.309091-88.345455-59.395455-109.15 24.395455-16.95 65.218182-30.836364 115.631818-33.813636 95.836364-5.736364 149.577273 28.295455 170.427273 45.772727 4.336364-0.131818 23.872727 0 29.304545 0.177273 19.840909-17.431818 71.659091-51.686364 167.840909-45.945455 50.372727 2.977273 90.009091 14.454545 115.109091 30.354545 19.886364 12.572727 38.327273 48.663636 0.086364 81.295455-16.863636 14.368182-37.845455 25.490909-59.436364 31.581818 32.545455 33.509091 56.459091 73.718182 68.677273 118.086364 26.059091-54.05 59.481818-81.686364 71.086364-61.190909C970.463636 242.622727 890.877273 366.795455 851.895455 401.836364z"  horiz-adv-x="1024" />

    
    <glyph glyph-name="weibosvg" unicode="&#58922;" d="M723.316364 374.085818c11.194182 37.888 8.261818 69.748364-8.773818 94.836364-13.009455 19.153455-39.842909 41.984-93.998545 41.984-26.554182 0-57.297455-5.771636-89.856-16.779636 4.212364 44.311273-10.705455 70.702545-25.064727 85.480727-17.152 17.710545-41.448727 27.066182-70.213818 27.066182-67.165091 0-158.021818-50.688-237.125818-132.258909-82.385455-85.038545-127.744-174.917818-127.744-253.044364 0-156.858182 186.181818-250.600727 366.149818-250.600727 231.424 0 392.704 139.682909 392.704 265.053091C829.393455 297.402182 789.969455 348.439273 723.316364 374.085818zM465.733818 432.151273c4.282182-5.748364 14.103273-15.406545 31.906909-15.406545 9.681455 0 18.897455 3.025455 25.437091 5.771636 36.817455 15.895273 70.516364 24.273455 97.489455 24.273455 11.776 0 32.744727-1.815273 40.936727-13.870545 6.795636-10.007273 5.492364-28.578909-3.584-52.247273-5.562182-14.266182-5.608727-27.252364-0.139636-38.539636 8.098909-16.733091 23.877818-21.666909 33.28-24.622545 22.318545-7.144727 74.216727-29.44 74.216727-81.687273 0-83.898182-124.997818-200.936727-328.587636-200.936727-189.067636 0-302.033455 94.813091-302.033455 186.507636 0 61.416727 38.958545 135.424 109.684364 208.407273 64.349091 66.397091 142.917818 112.779636 191.069091 112.779636 11.170909 0 19.316364-2.536727 24.180364-7.586909 9.681455-9.984 10.123636-34.606545 1.210182-64.186182C454.725818 451.258182 461.265455 438.225455 465.733818 432.151273zM756.340364 627.037091c-17.664 0-32.046545-14.382545-32.046545-32.046545 0-17.664 14.382545-32.046545 32.046545-32.046545 16.104727 0 29.207273-13.079273 29.207273-29.184 0-17.664 14.382545-32.046545 32.046545-32.046545 17.687273 0 32.069818 14.382545 32.069818 32.046545C849.664 585.192727 807.796364 627.037091 756.340364 627.037091zM923.298909 700.695273c-44.660364 44.637091-103.936 69.236364-166.935273 69.236364l-0.023273 0c-17.664 0-32.046545-14.382545-32.046545-32.046545 0-17.687273 14.382545-32.046545 32.046545-32.046545 94.906182 0 172.125091-77.195636 172.125091-172.101818 0-17.664 14.382545-32.046545 32.069818-32.046545 17.664 0 32.023273 14.382545 32.023273 32.046545C992.535273 596.736 967.959273 656.034909 923.298909 700.695273z"  horiz-adv-x="1024" />

    
    <glyph glyph-name="shixinweixin" unicode="&#58923;" d="M332.318182 729.740909c-267.840909-47.840909-357.122727-350.454545-144.072727-488.959091 11.681818-7.509091 11.681818-6.677273-5.845455-58.968182l-15.018182-44.772727 53.959091 28.918182 53.959091 28.922727 28.645455-6.954545c30.040909-7.504545 68.422727-12.790909 94.009091-12.790909l15.3 0-5.286364 20.304545c-42 154.640909 103.186364 307.895455 292.040909 307.895455l25.590909 0-5.286364 18.354545C678.872727 666.604545 503.931818 760.336364 332.318182 729.740909L332.318182 729.740909zM308.954545 594.290909c28.368182-19.195455 30.040909-60.631818 2.781818-78.436364-44.218182-28.922727-95.954545 21.972727-66.195455 65.363636C258.618182 600.686364 290.045455 607.086364 308.954545 594.290909L308.954545 594.290909zM537.027273 594.290909c46.727273-31.431818 11.686364-104.022727-40.609091-84-37.822727 14.463636-42.277273 66.477273-6.95 85.109091C503.372727 602.909091 525.068182 602.359091 537.027273 594.290909L537.027273 594.290909zM640.213636 479.695455c-132.668182-24.2-224.731818-124.881818-219.445455-240.586364 6.954545-154.922727 188.577273-261.722727 362.963636-213.886364l20.581818 5.563636 43.390909-23.368182c23.918182-13.068182 43.945455-22.522727 44.5-21.413636 0.559091 1.390909-4.168182 18.081818-10.290909 37.268182-13.904545 42.836364-14.186364 39.777273 4.454545 53.122727C1096.077273 226.877273 911.954545 528.927273 640.213636 479.695455L640.213636 479.695455zM634.936364 354.813636c11.672727-7.786364 17.795455-27.259091 12.790909-41.440909-10.568182-30.313636-55.904545-32.540909-68.145455-3.340909C565.677273 343.690909 604.059091 374.840909 634.936364 354.813636L634.936364 354.813636zM820.727273 351.472727c18.354545-17.518182 15.295455-47.281818-6.118182-58.404545-32.818182-16.690909-67.309091 16.686364-50.345455 48.668182C775.386364 362.322727 804.036364 367.331818 820.727273 351.472727L820.727273 351.472727z"  horiz-adv-x="1024" />

    
    <glyph glyph-name="duihuakuang" unicode="&#58889;" d="M846.103273 756.363636 172.613818 756.363636C115.293091 756.363636 68.654545 709.725091 68.654545 652.381091l0-568.878545c0-38.912 23.528727-72.890182 59.950545-86.574545 10.821818-4.072727 21.969455-6.050909 32.977455-6.050909 25.949091 0 50.990545 11.008 68.677818 31.208727l106.216727 116.852364c12.962909 14.266182 11.915636 36.352-2.350545 49.314909-14.266182 12.986182-36.352 11.938909-49.314909-2.373818l-106.658909-117.341091c-9.309091-10.658909-20.549818-7.982545-24.994909-6.283636-4.398545 1.652364-14.685091 7.051636-14.685091 21.201455L138.472727 652.381091C138.472727 671.232 153.786182 686.545455 172.613818 686.545455l673.489455 0c18.850909 0 34.164364-15.313455 34.164364-34.164364l0-418.234182c0-18.850909-15.313455-34.164364-34.164364-34.164364L484.584727 199.982545c-19.293091 0-34.909091-15.639273-34.909091-34.909091s15.616-34.909091 34.909091-34.909091l361.518545 0c57.344 0 103.982545 46.638545 103.982545 103.982545L950.085818 652.381091C950.085818 709.725091 903.447273 756.363636 846.103273 756.363636zM521.844364 442.088727m-58.088727 0a2.496 2.496 0 1 0 116.177455 0 2.496 2.496 0 1 0-116.177455 0ZM753.826909 442.088727m-58.088727 0a2.496 2.496 0 1 0 116.177455 0 2.496 2.496 0 1 0-116.177455 0ZM287.650909 442.088727m-58.088727 0a2.496 2.496 0 1 0 116.177455 0 2.496 2.496 0 1 0-116.177455 0Z"  horiz-adv-x="1024" />

    
    <glyph glyph-name="youbian" unicode="&#58924;" d="M778.752 416.907636 383.511273 812.171636c-18.176 18.176-47.639273 18.176-65.815273 0-18.176-18.176-18.176-47.639273 0-65.815273L680.005818 384 317.672727 21.666909c-18.176-18.176-18.176-47.639273 0-65.815273 9.099636-9.099636 20.992-13.637818 32.907636-13.637818s23.808 4.538182 32.907636 13.637818l395.240727 395.240727C796.928 369.268364 796.928 398.731636 778.752 416.907636z"  horiz-adv-x="1024" />

    
    <glyph glyph-name="zuobian" unicode="&#58925;" d="M323.328 384 685.661091 746.356364c18.176 18.176 18.176 47.639273 0 65.815273-18.176 18.176-47.639273 18.176-65.815273 0L224.581818 416.907636c-18.176-18.176-18.176-47.639273 0-65.815273l395.240727-395.240727c9.099636-9.099636 20.992-13.637818 32.907636-13.637818s23.808 4.538182 32.907636 13.637818c18.176 18.176 18.176 47.639273 0 65.815273L323.328 384z"  horiz-adv-x="1024" />

    
    <glyph glyph-name="xiangyou" unicode="&#58929;" d="M411.485091-77.079273c-2.978909 0-5.957818 1.140364-8.238545 3.397818-4.538182 4.538182-4.538182 11.915636 0 16.453818L825.949091 365.474909 403.060364 788.340364c-4.538182 4.538182-4.538182 11.915636 0 16.453818s11.915636 4.538182 16.453818 0l431.104-431.104c2.187636-2.187636 3.397818-5.143273 3.397818-8.238545s-1.233455-6.050909-3.397818-8.238545L419.700364-73.681455C417.442909-75.962182 414.464-77.079273 411.485091-77.079273z"  horiz-adv-x="1024" />

    
    <glyph glyph-name="xiangzuo" unicode="&#58930;" d="M675.746909-77.079273c-2.978909 0-5.957818 1.140364-8.238545 3.397818L236.613818 357.236364c-4.538182 4.561455-4.538182 11.915636 0 16.477091L667.694545 804.794182c4.538182 4.538182 11.915636 4.538182 16.453818 0s4.538182-11.915636 0-16.453818l-422.865455-422.865455L683.985455-57.227636c4.538182-4.538182 4.538182-11.915636 0-16.453818C681.704727-75.962182 678.725818-77.079273 675.746909-77.079273z"  horiz-adv-x="1024" />

    
    <glyph glyph-name="dianshi" unicode="&#58896;" d="M908.3664 858.794633 113.558335 858.794633c-60.921511 0-110.488417-49.555649-110.488417-110.488417L3.069919 234.705765c0-60.932768 49.567929-110.488417 110.488417-110.488417l237.210563 0 0-55.624878c0-20.183691 16.363689-36.559661 36.559661-36.559661s36.559661 16.375969 36.559661 36.559661l0 79.688947c0 2.095731-0.186242 4.148483-0.524956 6.148024 0.361227 2.062985 0.560772 4.182252 0.560772 6.347568 0 20.183691-16.363689 36.559661-36.559661 36.559661l-273.80604 0c-20.600177 0-37.369096 16.756639-37.369096 37.369096L76.18924 748.305193c0 20.612457 16.768919 37.369096 37.369096 37.369096l794.808064 0c20.600177 0 37.369096-16.756639 37.369096-37.369096L945.735495 234.705765c0-20.612457-16.768919-37.369096-37.369096-37.369096l-273.80604 0c-20.195971 0-36.559661-16.375969-36.559661-36.559661 0-2.084475 0.184195-4.124947 0.518816-6.115278-0.36532-2.073218-0.566912-4.203742-0.566912-6.381337l0-79.688947c0-20.183691 16.363689-36.559661 36.559661-36.559661s36.559661 16.375969 36.559661 36.559661l0 55.624878 237.294474 0c60.921511 0 110.488417 49.555649 110.488417 110.488417L1018.854816 748.305193C1018.85584 809.237961 969.287911 858.794633 908.3664 858.794633zM879.530654-14.501016 142.395104-14.501016c-20.195971 0-36.559661-16.375969-36.559661-36.559661 0-20.183691 16.363689-36.559661 36.559661-36.559661l737.13555 0c20.195971 0 36.559661 16.375969 36.559661 36.559661C916.090315-30.876985 899.726625-14.501016 879.530654-14.501016zM646.104277 279.500994c0 20.183691-16.363689 36.559661-36.559661 36.559661L412.381142 316.060655c-20.195971 0-36.559661-16.375969-36.559661-36.559661 0-20.183691 16.363689-36.559661 36.559661-36.559661l197.163475 0C629.740588 242.941334 646.104277 259.317303 646.104277 279.500994z"  horiz-adv-x="1035" />

    
    <glyph glyph-name="bingxiang1" unicode="&#58902;" d="M744.66913-82.60409 280.150538-82.60409c-55.205323 0-100.112092 44.906769-100.112092 100.112092L180.038446 256.198266c0 18.433838 14.947434 33.371038 33.371038 33.371038s33.371038-14.936177 33.371038-33.371038l0-238.690264c0-18.402115 14.968923-33.371038 33.371038-33.371038l464.518592 0c18.402115 0 33.371038 14.968923 33.371038 33.371038L778.041192 352.605989 213.408461 352.605989c-18.423605 0-33.371038 14.936177-33.371038 33.371038L180.037423 750.491998c0 55.205323 44.906769 100.112092 100.112092 100.112092l464.518592 0c55.205323 0 100.112092-44.906769 100.112092-100.112092l0-231.03184c0-18.433838-14.947434-33.371038-33.371038-33.371038s-33.371038 14.936177-33.371038 33.371038l0 231.03184c0 18.402115-14.968923 33.371038-33.371038 33.371038L280.150538 783.863037c-18.402115 0-33.371038-14.968923-33.371038-33.371038l0-331.143932 564.630684 0c18.423605 0 33.371038-14.936177 33.371038-33.371038l0-368.469026C844.781222-37.697321 799.874453-82.60409 744.66913-82.60409zM348.564697 487.328343c-18.423605 0-33.371038 14.936177-33.371038 33.371038l0 88.988754c0 18.433838 14.947434 33.371038 33.371038 33.371038s33.371038-14.936177 33.371038-33.371038l0-88.988754C381.935736 502.264521 366.988302 487.328343 348.564697 487.328343zM348.564697 130.905678c-18.423605 0-33.371038 14.936177-33.371038 33.371038l0 88.988754c0 18.433838 14.947434 33.371038 33.371038 33.371038s33.371038-14.936177 33.371038-33.371038l0-88.988754C381.935736 145.841855 366.988302 130.905678 348.564697 130.905678z"  horiz-adv-x="1024" />

    
    <glyph glyph-name="kongdiao" unicode="&#58910;" d="M910.309658 82.44906 112.644523 82.44906c-58.488089 0-106.054431 47.566342-106.054431 106.043175L6.590092 562.488137c0 58.475809 47.566342 106.054431 106.054431 106.054431l797.665135 0c58.488089 0 106.054431-47.578622 106.054431-106.054431l0-171.756829c0-19.84293-16.089443-35.920094-35.920094-35.920094-19.831674 0-35.920094 16.078187-35.920094 35.920094L944.523901 562.488137c0 18.860557-15.341407 34.213219-34.213219 34.213219L112.644523 596.701356c-18.871813 0-34.213219-15.352663-34.213219-34.213219l0-373.996926c0-18.860557 15.341407-34.201963 34.213219-34.201963l797.665135 0c18.871813 0 34.213219 15.341407 34.213219 34.201963l0 36.294624L171.062004 224.785835c-19.830651 0-35.920094 16.078187-35.920094 35.920094s16.089443 35.920094 35.920094 35.920094L980.442972 296.626024c19.830651 0 35.920094-16.078187 35.920094-35.920094l0-72.214718C1016.364089 130.015402 968.797747 82.44906 910.309658 82.44906zM840.175321 474.604554 653.18351 474.604554c-19.830651 0-35.920094 16.078187-35.920094 35.920094 0 19.84293 16.089443 35.920094 35.920094 35.920094l186.992835 0c19.830651 0 35.920094-16.078187 35.920094-35.920094C876.096439 490.682741 860.006995 474.604554 840.175321 474.604554z"  horiz-adv-x="1032" />

    
    <glyph glyph-name="shouji" unicode="&#58912;" d="M722.075808-128 301.923185-128c-59.579643 0-108.045431 48.465788-108.045431 108.045431L193.877754 771.509327c0 59.579643 48.465788 108.045431 108.045431 108.045431l420.152624 0c59.579643 0 108.045431-48.465788 108.045431-108.045431l0-496.21577c0-19.88371-16.132105-36.014808-36.014808-36.014808-19.88371 0-36.014808 16.132105-36.014808 36.014808L758.091623 771.509327c0 19.859545-16.155263 36.014808-36.014808 36.014808L301.923185 807.524135c-19.859545 0-36.014808-16.155263-36.014808-36.014808l0-791.463896c0-19.859545 16.155263-36.014808 36.014808-36.014808l420.152624 0c19.859545 0 36.014808 16.155263 36.014808 36.014808L758.090617 111.537893 337.914835 111.537893c-19.88371 0-36.014808 16.132105-36.014808 36.014808s16.132105 36.014808 36.014808 36.014808l456.19059 0c19.88371 0 36.014808-16.132105 36.014808-36.014808l0-167.50727C830.12124-79.534212 781.655451-128 722.075808-128zM517.989882 24.495814m-42.01778 0a41.731 41.731 0 1 0 84.035559 0 41.731 41.731 0 1 0-84.035559 0Z"  horiz-adv-x="1024" />

    
    <glyph glyph-name="xiyiji" unicode="&#58913;" d="M878.119515 642.845303c17.537422 0 31.766494 14.249539 31.766494 31.837102l0 49.869804c0 58.512648-47.504944 106.122993-105.887632 106.122993L220.503043 830.675202c-58.382689 0-105.886609-47.610344-105.886609-106.122993l0-166.604482c0-17.58654 14.228049-31.837102 31.766494-31.837102l699.972139 0 0-177.765683 0-95.500051 0-206.41007c0-23.411199-19.005866-42.448788-42.354644-42.448788L220.503043 3.986033c-23.348778 0-42.354644 19.037589-42.354644 42.448788L178.148399 441.212026c0 17.58654-14.228049 31.837102-31.766494 31.837102-17.537422 0-31.766494-14.249539-31.766494-31.837102l0-394.778228c0-58.512648 47.50392-106.122993 105.886609-106.122993l583.496357 0c58.382689 0 105.887632 47.610344 105.887632 106.122993L909.886009 252.844891l0 95.500051L909.886009 557.946704c0 17.58654-14.229073 31.837102-31.766494 31.837102l-699.972139 0L178.147376 724.551186c0 23.411199 19.005866 42.448788 42.354644 42.448788l583.496357 0c23.348778 0 42.354644-19.037589 42.354644-42.448788l0-49.869804C846.354044 657.094842 860.582093 642.845303 878.119515 642.845303zM719.619618 262.918317c0 114.102734-92.6307 206.939119-206.479655 206.939119S306.660308 377.020028 306.660308 262.918317s92.6307-206.939119 206.479655-206.939119S719.619618 148.815583 719.619618 262.918317zM370.192274 262.918317c0 79.001285 64.131623 143.264914 142.947689 143.264914s142.947689-64.264653 142.947689-143.264914S591.95603 119.65238 513.139963 119.65238 370.192274 183.917032 370.192274 262.918317zM619.710141 262.918317c0 58.896388-47.815005 106.806561-106.569154 106.806561S406.570809 321.813682 406.570809 262.918317c0-58.885132 47.815005-106.796328 106.569154-106.796328S619.710141 204.032162 619.710141 262.918317zM470.102774 262.918317c0 23.784706 19.315928 43.13338 43.037189 43.13338 23.721261 0 43.037189-19.348674 43.037189-43.13338 0-23.77345-19.315928-43.122123-43.037189-43.122123C489.418702 219.795171 470.102774 239.143844 470.102774 262.918317z"  horiz-adv-x="1024" />

    
    <glyph glyph-name="shoucang1" unicode="&#58914;" d="M512.647753-60.548772l-18.293645 9.407254C474.378148-40.873664 5.362124 203.804988 5.362124 518.714168c0 170.407088 133.857661 309.020052 298.387901 309.020052 78.558194 0 153.650449-32.340569 208.897727-88.395236 55.247278 56.054667 130.339534 88.395236 208.897727 88.395236 164.543543 0 298.400181-138.612964 298.400181-309.020052 0-314.90918-469.028303-559.587831-489.004263-569.854663L512.647753-60.548772zM303.750025 747.677906c-120.384811 0-218.331587-102.703103-218.331587-228.963739 0-234.775094 343.289554-441.639512 427.228291-488.677828 83.939761 47.038316 427.241594 253.902734 427.241594 488.677828 0 126.260635-97.946776 228.963739-218.343867 228.963739-69.358671 0-135.186935-34.999119-176.061878-93.63354l-32.835849-47.064922-32.835849 47.064922C438.936961 712.678788 373.108696 747.677906 303.750025 747.677906z"  horiz-adv-x="1036" />

    
    <glyph glyph-name="xianshimima" unicode="&#58933;" d="M512.161682 86.511585c-268.780583 0-504.647545 190.344163-504.647545 305.415968 0 117.815289 230.946906 305.415968 504.647545 305.415968 194.262402 0 365.016391-93.91188 448.062805-186.982602 37.018102-41.505299 56.583716-82.4662 56.583716-118.433366C1016.809227 276.855748 780.943288 86.511585 512.161682 86.511585zM512.161682 621.403968c-243.159042 0-428.706969-162.92979-428.706969-229.476415 0-53.766554 182.706205-229.476415 428.706969-229.476415S940.868651 338.162022 940.868651 391.927553c0 12.582573-9.801227 37.030381-37.314861 67.881017C831.792397 540.248623 682.927951 621.403968 512.161682 621.403968zM512.161682 241.45754c-82.972736 0-150.471037 67.51058-150.471037 150.471037s67.4983 150.471037 150.471037 150.471037 150.471037-67.51058 150.471037-150.471037S595.134419 241.45754 512.161682 241.45754zM512.161682 466.459037c-41.097 0-74.53046-33.44574-74.53046-74.53046s33.43346-74.53046 74.53046-74.53046 74.53046 33.44574 74.53046 74.53046S553.258683 466.459037 512.161682 466.459037z"  horiz-adv-x="1033" />

    
    <glyph glyph-name="shoucangtubiao" unicode="&#58934;" d="M649.259286 398.127664c-2.849084 8.260921-10.193178 14.275759-18.993577 15.57278l-85.910545 12.789116-37.320629 77.521629c-3.925194 8.13577-12.346346 13.325748-21.588566 13.325748-9.243168 0-17.66432-5.189978-21.588566-13.325748l-37.321577-77.521629-85.910545-12.789116c-8.831686-1.297021-16.144493-7.311859-18.993577-15.57278-2.849084-8.262817-0.695916-17.378938 5.539833-23.583399l62.930148-62.867572-14.592429-87.17533c-1.456304-8.76911 2.342791-17.570457 9.781697-22.729147 4.114817-2.816848 8.926497-4.242812 13.738178-4.242812 3.956482 0 7.945199 0.981298 11.522435 2.880372l74.895352 39.061367 74.894404-39.061367c3.577236-1.899073 7.565953-2.880372 11.522435-2.880372 4.811681 0 9.623362 1.425964 13.738178 4.242812 7.438906 5.158691 11.237052 13.959089 9.749461 22.729147l-14.592429 87.17533 62.961435 62.867572C649.95615 380.749674 652.077082 389.864846 649.259286 398.127664z"  horiz-adv-x="1030" />

    
    </font>
</defs>
</svg>
